<svg width="28" height="17" viewBox="0 0 28 17" fill="none" xmlns="http://www.w3.org/2000/svg">
<path fill-rule="evenodd" clip-rule="evenodd" d="M0 0.5C0 0.223858 0.223858 0 0.5 0H27.5C27.7761 0 28 0.223858 28 0.5C28 0.776142 27.7761 1 27.5 1H0.5C0.223857 1 0 0.776142 0 0.5ZM10 8.5C10 8.22386 10.2239 8 10.5 8H27.5C27.7761 8 28 8.22386 28 8.5C28 8.77614 27.7761 9 27.5 9H10.5C10.2239 9 10 8.77614 10 8.5ZM0.5 16C0.223858 16 0 16.2239 0 16.5C0 16.7761 0.223857 17 0.5 17H27.5C27.7761 17 28 16.7761 28 16.5C28 16.2239 27.7761 16 27.5 16H0.5Z" fill="#1C1D20"/>
</svg>
