<svg width="235.16875px" height="122px" xmlns="http://www.w3.org/2000/svg" viewBox="82.415625 14 335.16875 122" style="background: rgba(0, 0, 0, 0);" preserveAspectRatio="xMidYMid"><defs><filter id="editing-extrude-glow"><feFlood flood-color="#333333" result="flood-1"></feFlood><feMorphology operator="erode" radius="1" in="SourceAlpha" result="erode"></feMorphology><feComposite operator="in" in="flood-1" in2="erode" result="comp1"></feComposite><feConvolveMatrix order="3,3" divisor="1" in="comp1" result="convolve" kernelMatrix="0 0 0 1 1 1 0 0 0"></feConvolveMatrix><feOffset dx="-3" dy="0" in="convolve" result="extrude"></feOffset><feComposite operator="in" in="flood-1" in2="extrude" result="comp-extrude"></feComposite><feFlood flood-color="#000000" result="flood-2"></feFlood><feComposite operator="in" in="flood-2" in2="SourceAlpha" result="comp2"></feComposite><feMorphology operator="dilate" radius="1" in="comp2" result="dilate"></feMorphology><feOffset dx="-4.5" dy="0" in="dilate" result="offset"></feOffset><feGaussianBlur in="offset" stdDeviation="5.8" result="blur"></feGaussianBlur><feComponentTransfer in="blur" result="shadow"><feFuncA type="linear" slope="0.8" intercept="-0.2"></feFuncA></feComponentTransfer><feMerge><feMergeNode in="shadow"></feMergeNode><feMergeNode in="comp-extrude"></feMergeNode><feMergeNode in="SourceGraphic"></feMergeNode></feMerge></filter></defs><g filter="url(#editing-extrude-glow)"><g transform="translate(135.11998808383942, 97.39999961853027)"><path d="M34.50-13.25L34.50-13.25L34.50-13.25Q36.16-12.03 36.16-9.44L36.16-9.44L36.16-9.44Q36.16-6.85 35.04-5.02L35.04-5.02L35.04-5.02Q33.92-3.20 31.74-1.79L31.74-1.79L31.74-1.79Q27.07 1.22 18.91 1.22L18.91 1.22L18.91 1.22Q10.75 1.22 6.30-3.04L6.30-3.04L6.30-3.04Q1.86-7.30 1.86-14.85L1.86-14.85L1.86-14.85Q1.86-25.54 7.42-33.66L7.42-33.66L7.42-33.66Q11.65-39.68 19.20-42.24L19.20-42.24L19.20-42.24Q23.10-43.52 26.94-43.52L26.94-43.52L26.94-43.52Q30.78-43.52 33.15-43.01L33.15-43.01L33.15-43.01Q35.52-42.50 37.31-41.47L37.31-41.47L37.31-41.47Q41.22-39.23 41.22-35.65L41.22-35.65L41.22-35.65Q41.22-32.38 38.14-29.95L38.14-29.95L38.14-29.95Q35.33-27.78 33.02-27.78L33.02-27.78L33.02-27.78Q30.72-27.78 29.76-28.10L29.76-28.10L29.76-28.10Q30.02-30.40 30.02-31.90L30.02-31.90L30.02-31.90Q30.02-33.41 29.95-34.50L29.95-34.50L29.95-34.50Q29.89-35.58 29.57-36.61L29.57-36.61L29.57-36.61Q28.93-38.98 26.98-38.98L26.98-38.98L26.98-38.98Q25.02-38.98 23.07-37.15L23.07-37.15L23.07-37.15Q21.12-35.33 19.46-32.26L19.46-32.26L19.46-32.26Q15.68-25.28 15.68-17.02L15.68-17.02L15.68-17.02Q15.68-13.06 17.92-10.78L17.92-10.78L17.92-10.78Q20.16-8.51 24.96-8.51L24.96-8.51L24.96-8.51Q28.54-8.51 31.94-10.88L31.94-10.88L31.94-10.88Q33.41-11.90 34.50-13.25ZM62.02-2.69L62.02-2.69L62.02-2.69Q58.94 1.28 51.33 1.28L51.33 1.28L51.33 1.28Q47.36 1.28 44.48-1.12L44.48-1.12L44.48-1.12Q41.60-3.52 41.60-6.98L41.60-6.98L41.60-6.98Q41.60-8.90 41.79-9.86L41.79-9.86L46.08-32.64L59.07-33.92L54.40-9.22L54.40-9.22Q54.14-7.81 54.14-6.98L54.14-6.98L54.14-6.98Q54.14-3.26 56.38-3.26L56.38-3.26L56.38-3.26Q58.88-3.26 60.67-6.66L60.67-6.66L60.67-6.66Q61.25-7.74 61.50-9.15L61.50-9.15L66.05-32.64L78.66-33.92L73.92-8.96L73.92-8.96Q73.73-8 73.73-6.98L73.73-6.98L73.73-6.98Q73.73-5.95 74.30-4.83L74.30-4.83L74.30-4.83Q74.88-3.71 76.74-3.46L76.74-3.46L76.74-3.46Q76.35-1.92 75.01-0.90L75.01-0.90L75.01-0.90Q72.19 1.28 69.15 1.28L69.15 1.28L69.15 1.28Q66.11 1.28 64.32 0.19L64.32 0.19L64.32 0.19Q62.53-0.90 62.02-2.69ZM101.25-22.46L101.25-22.46L101.25-22.46Q102.14-24.83 102.14-26.88L102.14-26.88L102.14-26.88Q102.14-30.66 99.07-30.66L99.07-30.66L99.07-30.66Q97.47-30.66 96.16-29.22L96.16-29.22L96.16-29.22Q94.85-27.78 94.85-25.98L94.85-25.98L94.85-25.98Q94.85-24.70 95.87-23.68L95.87-23.68L95.87-23.68Q97.34-22.27 101.12-19.97L101.12-19.97L101.12-19.97Q104.90-17.66 106.34-15.78L106.34-15.78L106.34-15.78Q107.78-13.89 107.78-11.30L107.78-11.30L107.78-11.30Q107.78-8.70 106.53-6.34L106.53-6.34L106.53-6.34Q105.28-3.97 103.04-2.30L103.04-2.30L103.04-2.30Q98.24 1.28 90.56 1.28L90.56 1.28L90.56 1.28Q86.40 1.28 83.20-0.90L83.20-0.90L83.20-0.90Q80-3.01 80-5.50L80-5.50L80-5.50Q80-8 81.82-9.47L81.82-9.47L81.82-9.47Q83.65-10.94 86.34-10.94L86.34-10.94L86.34-10.94Q89.02-10.94 90.69-9.92L90.69-9.92L90.69-9.92Q89.86-7.81 89.86-6.40L89.86-6.40L89.86-6.40Q89.86-2.18 93.44-2.18L93.44-2.18L93.44-2.18Q94.98-2.18 96-3.14L96-3.14L96-3.14Q97.02-4.10 97.02-5.76L97.02-5.76L97.02-5.76Q97.02-9.02 91.52-12.48L91.52-12.48L91.52-12.48Q87.04-15.42 86.02-16.58L86.02-16.58L86.02-16.58Q84.29-18.62 84.29-21.18L84.29-21.18L84.29-21.18Q84.29-23.74 85.50-26.18L85.50-26.18L85.50-26.18Q86.72-28.61 88.96-30.34L88.96-30.34L88.96-30.34Q93.63-33.92 101.76-33.92L101.76-33.92L101.76-33.92Q105.92-33.92 108.38-32.26L108.38-32.26L108.38-32.26Q110.85-30.59 110.85-27.78L110.85-27.78L110.85-27.78Q110.85-24.96 109.15-23.36L109.15-23.36L109.15-23.36Q107.46-21.76 104.38-21.76L104.38-21.76L104.38-21.76Q102.27-21.76 101.25-22.46ZM114.24-6.40L114.24-6.40L114.24-6.40Q114.24-8.13 115.14-12.48L115.14-12.48L118.53-29.76L114.75-29.76L115.01-31.68L115.01-31.68Q122.69-33.98 130.11-39.62L130.11-39.62L133.18-39.62L131.65-32.64L136.64-32.64L136.06-29.76L131.14-29.76L127.87-12.48L127.87-12.48Q127.04-8.51 127.04-7.17L127.04-7.17L127.04-7.17Q127.04-4.10 129.73-3.46L129.73-3.46L129.73-3.46Q129.09-1.28 126.78 0L126.78 0L126.78 0Q124.48 1.28 121.22 1.28L121.22 1.28L121.22 1.28Q117.95 1.28 116.10-0.77L116.10-0.77L116.10-0.77Q114.24-2.82 114.24-6.40ZM150.02 1.28L150.02 1.28L150.02 1.28Q135.94 1.28 135.94-11.97L135.94-11.97L135.94-11.97Q135.94-21.38 141.12-27.46L141.12-27.46L141.12-27.46Q146.62-33.92 156.16-33.92L156.16-33.92L156.16-33.92Q163.07-33.92 166.59-30.72L166.59-30.72L166.59-30.72Q170.11-27.52 170.11-20.80L170.11-20.80L170.11-20.80Q170.11-10.56 164.61-4.61L164.61-4.61L164.61-4.61Q159.23 1.28 150.02 1.28ZM151.68-26.56L151.68-26.56L151.68-26.56Q150.91-24.83 150.30-22.24L150.30-22.24L150.30-22.24Q149.70-19.65 148.93-15.55L148.93-15.55L148.93-15.55Q148.16-11.46 148.16-6.40L148.16-6.40L148.16-6.40Q148.16-4.74 148.70-3.65L148.70-3.65L148.70-3.65Q149.25-2.56 150.72-2.56L150.72-2.56L150.72-2.56Q152.19-2.56 153.12-3.26L153.12-3.26L153.12-3.26Q154.05-3.97 154.75-5.63L154.75-5.63L154.75-5.63Q156.03-8.58 157.06-14.05L157.06-14.05L157.06-14.05Q158.08-19.52 158.18-21.89L158.18-21.89L158.18-21.89Q158.27-24.26 158.27-26.02L158.27-26.02L158.27-26.02Q158.27-27.78 157.76-28.93L157.76-28.93L157.76-28.93Q157.25-30.08 155.81-30.08L155.81-30.08L155.81-30.08Q154.37-30.08 153.41-29.18L153.41-29.18L153.41-29.18Q152.45-28.29 151.68-26.56ZM219.97 1.28L219.97 1.28L219.97 1.28Q212.22 1.28 212.22-4.74L212.22-4.74L212.22-4.74Q212.22-7.36 213.34-12.45L213.34-12.45L213.34-12.45Q214.46-17.54 214.85-19.58L214.85-19.58L214.85-19.58Q215.74-24.26 215.74-25.73L215.74-25.73L215.74-25.73Q215.74-28.99 213.31-28.99L213.31-28.99L213.31-28.99Q211.71-28.99 210.18-26.78L210.18-26.78L210.18-26.78Q208.64-24.58 207.94-20.16L207.94-20.16L203.97 0L191.49 1.28L194.94-16.13L194.94-16.13Q195.52-19.01 196.03-22.27L196.03-22.27L196.03-22.27Q196.54-25.54 196.54-26.05L196.54-26.05L196.54-26.05Q196.54-28.99 194.37-28.99L194.37-28.99L194.37-28.99Q192.90-28.99 191.30-26.82L191.30-26.82L191.30-26.82Q189.70-24.64 188.80-20.16L188.80-20.16L184.90 0L172.29 1.28L179.01-32.64L189.44-33.92L188.35-27.46L188.35-27.46Q190.02-30.91 193.09-32.42L193.09-32.42L193.09-32.42Q196.16-33.92 200.96-33.92L200.96-33.92L200.96-33.92Q203.71-33.92 205.50-32.58L205.50-32.58L205.50-32.58Q207.30-31.23 207.87-29.06L207.87-29.06L207.87-29.06Q208.96-31.30 211.74-32.61L211.74-32.61L211.74-32.61Q214.53-33.92 217.95-33.92L217.95-33.92L217.95-33.92Q221.38-33.92 223.07-33.18L223.07-33.18L223.07-33.18Q224.77-32.45 225.79-31.23L225.79-31.23L225.79-31.23Q227.52-28.99 227.52-24.90L227.52-24.90L227.52-24.90Q227.52-20.86 225.79-12.48L225.79-12.48L225.79-12.48Q224.90-8.38 224.90-6.88L224.90-6.88L224.90-6.88Q224.90-5.38 225.76-4.48L225.76-4.48L225.76-4.48Q226.62-3.58 227.90-3.46L227.90-3.46L227.90-3.46Q227.26-1.28 225.06 0L225.06 0L225.06 0Q222.85 1.28 219.97 1.28Z" fill="#eb6c6c"></path></g></g><style>text {
  font-size: 64px;
  font-family: Arial Black;
  dominant-baseline: central;
  text-anchor: middle;
}</style></svg>