<svg width="150px" height="122px" xmlns="http://www.w3.org/2000/svg" viewBox="83.64704589843751 14 332.705908203125 122" style="background: rgba(0, 0, 0, 0);" preserveAspectRatio="xMidYMid"><defs><filter id="editing-extrude-glow"><feFlood flood-color="#333333" result="flood-1"></feFlood><feMorphology operator="erode" radius="1" in="SourceAlpha" result="erode"></feMorphology><feComposite operator="in" in="flood-1" in2="erode" result="comp1"></feComposite><feConvolveMatrix order="3,3" divisor="1" in="comp1" result="convolve" kernelMatrix="0 0 0 1 1 1 0 0 0"></feConvolveMatrix><feOffset dx="-3" dy="0" in="convolve" result="extrude"></feOffset><feComposite operator="in" in="flood-1" in2="extrude" result="comp-extrude"></feComposite><feFlood flood-color="#000000" result="flood-2"></feFlood><feComposite operator="in" in="flood-2" in2="SourceAlpha" result="comp2"></feComposite><feMorphology operator="dilate" radius="1" in="comp2" result="dilate"></feMorphology><feOffset dx="-4.5" dy="0" in="dilate" result="offset"></feOffset><feGaussianBlur in="offset" stdDeviation="5.8" result="blur"></feGaussianBlur><feComponentTransfer in="blur" result="shadow"><feFuncA type="linear" slope="0.8" intercept="-0.2"></feFuncA></feComponentTransfer><feMerge><feMergeNode in="shadow"></feMergeNode><feMergeNode in="comp-extrude"></feMergeNode><feMergeNode in="SourceGraphic"></feMergeNode></feMerge></filter></defs><g filter="url(#editing-extrude-glow)"><g transform="translate(136.5533697605133, 98.68000030517578)"><path d="M42.62-26.56L42.62-26.56L42.62-26.56Q42.62 0.70 13.06 0.70L13.06 0.70L13.06 0.70Q8.32 0.70 0.51-0.45L0.51-0.45L7.68-38.27L7.68-38.27Q8.19-40.83 8.51-42.30L8.51-42.30L8.51-42.30Q18.24-43.01 22.56-43.01L22.56-43.01L22.56-43.01Q26.88-43.01 30.85-42.11L30.85-42.11L30.85-42.11Q34.82-41.22 37.44-39.23L37.44-39.23L37.44-39.23Q42.62-35.33 42.62-26.56ZM29.44-28.93L29.44-28.93L29.44-28.93Q29.44-38.46 22.59-38.46L22.59-38.46L21.95-38.46L21.95-38.46Q21.63-38.46 21.31-38.40L21.31-38.40L14.72-4.03L14.72-4.03Q14.98-3.90 15.23-3.90L15.23-3.90L15.74-3.90L15.74-3.90Q18.11-3.90 20.58-5.38L20.58-5.38L20.58-5.38Q23.04-6.85 24.96-9.86L24.96-9.86L24.96-9.86Q29.44-16.83 29.44-28.93ZM71.81-10.82L71.81-10.82L71.81-10.82Q73.41-9.73 73.41-7.33L73.41-7.33L73.41-7.33Q73.41-4.93 72.19-3.39L72.19-3.39L72.19-3.39Q70.98-1.86 68.99-0.83L68.99-0.83L68.99-0.83Q64.90 1.28 60.48 1.28L60.48 1.28L60.48 1.28Q56.06 1.28 53.47 0.32L53.47 0.32L53.47 0.32Q50.88-0.64 49.15-2.43L49.15-2.43L49.15-2.43Q45.76-5.82 45.76-12.03L45.76-12.03L45.76-12.03Q45.76-21.70 51.01-27.58L51.01-27.58L51.01-27.58Q56.64-33.92 66.43-33.92L66.43-33.92L66.43-33.92Q72.51-33.92 75.52-31.36L75.52-31.36L75.52-31.36Q77.76-29.44 77.76-26.30L77.76-26.30L77.76-26.30Q77.76-15.04 58.30-15.04L58.30-15.04L58.30-15.04Q58.05-13.38 58.05-11.97L58.05-11.97L58.05-11.97Q58.05-9.02 59.36-7.90L59.36-7.90L59.36-7.90Q60.67-6.78 63.10-6.78L63.10-6.78L63.10-6.78Q65.54-6.78 68.13-7.90L68.13-7.90L68.13-7.90Q70.72-9.02 71.81-10.82ZM58.75-17.79L58.75-17.79L58.75-17.79Q63.30-17.79 65.92-20.61L65.92-20.61L65.92-20.61Q68.54-23.30 68.54-27.58L68.54-27.58L68.54-27.58Q68.54-29.06 68-29.86L68-29.86L68-29.86Q67.46-30.66 66.37-30.66L66.37-30.66L66.37-30.66Q65.28-30.66 64.35-30.24L64.35-30.24L64.35-30.24Q63.42-29.82 62.46-28.42L62.46-28.42L62.46-28.42Q60.10-25.22 58.75-17.79ZM104.90-37.12L104.90-37.12L104.90-37.12Q105.79-38.66 105.79-40.32L105.79-40.32L105.79-40.32Q105.79-43.26 104.00-43.26L104.00-43.26L104.00-43.26Q101.25-43.26 100.10-37.63L100.10-37.63L99.14-32.64L104.96-32.64L104.58-29.76L98.56-29.76L92.80 0L79.87 1.28L86.02-29.76L81.47-29.76L82.05-32.64L86.53-32.64L87.87-37.70L87.87-37.70Q89.02-42.37 93.95-44.54L93.95-44.54L93.95-44.54Q97.54-46.08 103.55-46.08L103.55-46.08L103.55-46.08Q109.57-46.08 112.26-44.54L112.26-44.54L112.26-44.54Q114.94-43.01 114.94-40.96L114.94-40.96L114.94-40.96Q114.94-38.91 113.34-37.63L113.34-37.63L113.34-37.63Q111.74-36.35 109.95-36.35L109.95-36.35L109.95-36.35Q106.43-36.35 104.90-37.12ZM106.66-1.92L106.66-1.92L106.66-1.92Q105.15-3.58 104.48-6.21L104.48-6.21L104.48-6.21Q103.81-8.83 103.81-13.12L103.81-13.12L103.81-13.12Q103.81-17.41 105.28-21.31L105.28-21.31L105.28-21.31Q106.75-25.22 109.44-28.03L109.44-28.03L109.44-28.03Q114.94-33.92 124.03-33.92L124.03-33.92L124.03-33.92Q127.30-33.92 129.66-32.83L129.66-32.83L140.61-33.92L135.87-8.96L135.87-8.96Q135.68-8.19 135.68-6.78L135.68-6.78L135.68-6.78Q135.68-5.38 136.54-4.48L136.54-4.48L136.54-4.48Q137.41-3.58 138.69-3.46L138.69-3.46L138.69-3.46Q138.05-1.28 135.71 0L135.71 0L135.71 0Q133.38 1.28 130.75 1.28L130.75 1.28L130.75 1.28Q128.13 1.28 126.37 0.29L126.37 0.29L126.37 0.29Q124.61-0.70 124.10-2.37L124.10-2.37L124.10-2.37Q123.07-0.77 120.90 0.26L120.90 0.26L120.90 0.26Q118.72 1.28 115.81 1.28L115.81 1.28L115.81 1.28Q112.90 1.28 110.53 0.51L110.53 0.51L110.53 0.51Q108.16-0.26 106.66-1.92ZM120.16-27.90L120.16-27.90L120.16-27.90Q119.42-26.75 118.78-24.80L118.78-24.80L118.78-24.80Q118.14-22.85 117.09-17.63L117.09-17.63L117.09-17.63Q116.03-12.42 116.03-8.70L116.03-8.70L116.03-8.70Q116.03-4.99 116.61-3.90L116.61-3.90L116.61-3.90Q117.18-2.82 118.21-2.82L118.21-2.82L118.21-2.82Q120.26-2.82 121.76-4.77L121.76-4.77L121.76-4.77Q123.26-6.72 123.84-10.18L123.84-10.18L127.23-28.93L127.23-28.93Q125.89-30.08 124.32-30.08L124.32-30.08L124.32-30.08Q122.75-30.08 121.82-29.57L121.82-29.57L121.82-29.57Q120.90-29.06 120.16-27.90ZM164.61-2.69L164.61-2.69L164.61-2.69Q161.54 1.28 153.92 1.28L153.92 1.28L153.92 1.28Q149.95 1.28 147.07-1.12L147.07-1.12L147.07-1.12Q144.19-3.52 144.19-6.98L144.19-6.98L144.19-6.98Q144.19-8.90 144.38-9.86L144.38-9.86L148.67-32.64L161.66-33.92L156.99-9.22L156.99-9.22Q156.74-7.81 156.74-6.98L156.74-6.98L156.74-6.98Q156.74-3.26 158.98-3.26L158.98-3.26L158.98-3.26Q161.47-3.26 163.26-6.66L163.26-6.66L163.26-6.66Q163.84-7.74 164.10-9.15L164.10-9.15L168.64-32.64L181.25-33.92L176.51-8.96L176.51-8.96Q176.32-8 176.32-6.98L176.32-6.98L176.32-6.98Q176.32-5.95 176.90-4.83L176.90-4.83L176.90-4.83Q177.47-3.71 179.33-3.46L179.33-3.46L179.33-3.46Q178.94-1.92 177.60-0.90L177.60-0.90L177.60-0.90Q174.78 1.28 171.74 1.28L171.74 1.28L171.74 1.28Q168.70 1.28 166.91 0.19L166.91 0.19L166.91 0.19Q165.12-0.90 164.61-2.69ZM200.00-3.52L200.00-3.52L200.00-3.52Q198.02 1.28 191.68 1.28L191.68 1.28L191.68 1.28Q188.48 1.28 186.43-0.96L186.43-0.96L186.43-0.96Q184.77-2.82 184.77-4.93L184.77-4.93L184.77-4.93Q184.77-9.73 187.01-20.22L187.01-20.22L191.68-44.80L204.67-46.08L198.46-13.70L198.46-13.70Q197.38-8.96 197.38-7.30L197.38-7.30L197.38-7.30Q197.38-3.65 200.00-3.52ZM206.46-6.40L206.46-6.40L206.46-6.40Q206.46-8.13 207.36-12.48L207.36-12.48L210.75-29.76L206.98-29.76L207.23-31.68L207.23-31.68Q214.91-33.98 222.34-39.62L222.34-39.62L225.41-39.62L223.87-32.64L228.86-32.64L228.29-29.76L223.36-29.76L220.10-12.48L220.10-12.48Q219.26-8.51 219.26-7.17L219.26-7.17L219.26-7.17Q219.26-4.10 221.95-3.46L221.95-3.46L221.95-3.46Q221.31-1.28 219.01 0L219.01 0L219.01 0Q216.70 1.28 213.44 1.28L213.44 1.28L213.44 1.28Q210.18 1.28 208.32-0.77L208.32-0.77L208.32-0.77Q206.46-2.82 206.46-6.40Z" fill="#eb6c6c"></path></g></g><style>text {
  font-size: 64px;
  font-family: Arial Black;
  dominant-baseline: central;
  text-anchor: middle;
}</style></svg>