<svg width="100.8125px" height="100px" xmlns="http://www.w3.org/2000/svg" viewBox="63.09375 14 373.8125 122" style="background: rgba(0, 0, 0, 0);" preserveAspectRatio="xMidYMid"><defs><filter id="editing-extrusion" x="-100%" y="-100%" width="300%" height="300%"><feFlood result="color1" flood-color="#444"></feFlood><feConvolveMatrix order="8,8" divisor="1" kernelMatrix="1 0 0 0 0 0 0 0 0 1 0 0 0 0 0 0 0 0 1 0 0 0 0 0 0 0 0 1 0 0 0 0 0 0 0 0 1 0 0 0 0 0 0 0 0 1 0 0 0 0 0 0 0 0 1 0 0 0 0 0 0 0 0 1" in="SourceAlpha" result="extrude"></feConvolveMatrix><feComposite in="color1" in2="extrude" result="comp-extrude" operator="in"></feComposite><feOffset dx="4" dy="4" in="comp-extrude" result="offset-extrude"></feOffset><feMerge><feMergeNode in="offset-extrude"></feMergeNode><feMergeNode in="SourceGraphic"></feMergeNode></feMerge></filter></defs><g filter="url(#editing-extrusion)"><g transform="translate(121.09997743368149, 103.15999984741211)"><path d="M27.84-9.86L27.84-9.86L27.84-9.86Q29.06-8.32 29.06-5.34L29.06-5.34L29.06-5.34Q29.06-2.37 26.78-0.54L26.78-0.54L26.78-0.54Q24.51 1.28 20.54 1.28L20.54 1.28L20.54 1.28Q18.24 1.28 14.66 0.77L14.66 0.77L14.66 0.77Q7.62-0.32 5.60-0.32L5.60-0.32L5.60-0.32Q3.58-0.32 2.75-0.22L2.75-0.22L2.75-0.22Q1.92-0.13 0.58 0L0.58 0L8.32-42.24L22.34-42.24L15.94-7.04L15.94-7.04Q16.77-6.91 17.54-6.91L17.54-6.91L19.14-6.91L19.14-6.91Q24.51-6.91 27.84-9.86ZM36.13-1.92L36.13-1.92L36.13-1.92Q34.62-3.58 33.95-6.21L33.95-6.21L33.95-6.21Q33.28-8.83 33.28-13.12L33.28-13.12L33.28-13.12Q33.28-17.41 34.75-21.31L34.75-21.31L34.75-21.31Q36.22-25.22 38.91-28.03L38.91-28.03L38.91-28.03Q44.42-33.92 53.50-33.92L53.50-33.92L53.50-33.92Q56.77-33.92 59.14-32.83L59.14-32.83L70.08-33.92L65.34-8.96L65.34-8.96Q65.15-8.19 65.15-6.78L65.15-6.78L65.15-6.78Q65.15-5.38 66.02-4.48L66.02-4.48L66.02-4.48Q66.88-3.58 68.16-3.46L68.16-3.46L68.16-3.46Q67.52-1.28 65.18 0L65.18 0L65.18 0Q62.85 1.28 60.22 1.28L60.22 1.28L60.22 1.28Q57.60 1.28 55.84 0.29L55.84 0.29L55.84 0.29Q54.08-0.70 53.57-2.37L53.57-2.37L53.57-2.37Q52.54-0.77 50.37 0.26L50.37 0.26L50.37 0.26Q48.19 1.28 45.28 1.28L45.28 1.28L45.28 1.28Q42.37 1.28 40 0.51L40 0.51L40 0.51Q37.63-0.26 36.13-1.92ZM49.63-27.90L49.63-27.90L49.63-27.90Q48.90-26.75 48.26-24.80L48.26-24.80L48.26-24.80Q47.62-22.85 46.56-17.63L46.56-17.63L46.56-17.63Q45.50-12.42 45.50-8.70L45.50-8.70L45.50-8.70Q45.50-4.99 46.08-3.90L46.08-3.90L46.08-3.90Q46.66-2.82 47.68-2.82L47.68-2.82L47.68-2.82Q49.73-2.82 51.23-4.77L51.23-4.77L51.23-4.77Q52.74-6.72 53.31-10.18L53.31-10.18L56.70-28.93L56.70-28.93Q55.36-30.08 53.79-30.08L53.79-30.08L53.79-30.08Q52.22-30.08 51.30-29.57L51.30-29.57L51.30-29.57Q50.37-29.06 49.63-27.90ZM93.89-7.23L93.89-7.23L93.89-7.23Q90.56-3.78 84.48-3.78L84.48-3.78L84.48-3.78Q76.86-3.78 75.26-9.34L75.26-9.34L75.26-9.34Q74.75-11.01 74.75-12.86L74.75-12.86L74.75-12.86Q74.75-14.72 75.14-16.64L75.14-16.64L78.14-32.64L91.14-33.92L87.62-15.30L87.62-15.30Q87.49-14.46 87.30-13.57L87.30-13.57L87.30-13.57Q87.10-12.67 87.10-11.74L87.10-11.74L87.10-11.74Q87.10-10.82 87.42-10.21L87.42-10.21L87.42-10.21Q87.74-9.60 88.19-9.22L88.19-9.22L88.19-9.22Q88.96-8.70 90.34-8.70L90.34-8.70L90.34-8.70Q91.71-8.70 92.90-10.37L92.90-10.37L92.90-10.37Q94.08-12.03 94.66-14.91L94.66-14.91L98.18-32.64L110.78-33.92L105.98-8.77L105.98-8.77Q103.62 3.52 98.75 8.38L98.75 8.38L98.75 8.38Q96.26 10.88 93.02 11.87L93.02 11.87L93.02 11.87Q89.79 12.86 85.63 12.86L85.63 12.86L85.63 12.86Q78.91 12.86 75.07 10.75L75.07 10.75L75.07 10.75Q71.23 8.64 71.23 5.12L71.23 5.12L71.23 5.12Q71.23 2.50 73.22 0.99L73.22 0.99L73.22 0.99Q75.20-0.51 78.27-0.51L78.27-0.51L78.27-0.51Q80.96-0.51 83.01 0.64L83.01 0.64L83.01 0.64Q84.22 1.34 84.80 2.24L84.80 2.24L84.80 2.24Q83.33 3.52 83.33 5.63L83.33 5.63L83.33 5.63Q83.33 8.45 85.89 8.45L85.89 8.45L85.89 8.45Q90.11 8.45 92.54-1.28L92.54-1.28L92.54-1.28Q93.25-4.16 93.89-7.23ZM127.04 1.28L127.04 1.28L127.04 1.28Q112.96 1.28 112.96-11.97L112.96-11.97L112.96-11.97Q112.96-21.38 118.14-27.46L118.14-27.46L118.14-27.46Q123.65-33.92 133.18-33.92L133.18-33.92L133.18-33.92Q140.10-33.92 143.62-30.72L143.62-30.72L143.62-30.72Q147.14-27.52 147.14-20.80L147.14-20.80L147.14-20.80Q147.14-10.56 141.63-4.61L141.63-4.61L141.63-4.61Q136.26 1.28 127.04 1.28ZM128.70-26.56L128.70-26.56L128.70-26.56Q127.94-24.83 127.33-22.24L127.33-22.24L127.33-22.24Q126.72-19.65 125.95-15.55L125.95-15.55L125.95-15.55Q125.18-11.46 125.18-6.40L125.18-6.40L125.18-6.40Q125.18-4.74 125.73-3.65L125.73-3.65L125.73-3.65Q126.27-2.56 127.74-2.56L127.74-2.56L127.74-2.56Q129.22-2.56 130.14-3.26L130.14-3.26L130.14-3.26Q131.07-3.97 131.78-5.63L131.78-5.63L131.78-5.63Q133.06-8.58 134.08-14.05L134.08-14.05L134.08-14.05Q135.10-19.52 135.20-21.89L135.20-21.89L135.20-21.89Q135.30-24.26 135.30-26.02L135.30-26.02L135.30-26.02Q135.30-27.78 134.78-28.93L134.78-28.93L134.78-28.93Q134.27-30.08 132.83-30.08L132.83-30.08L132.83-30.08Q131.39-30.08 130.43-29.18L130.43-29.18L130.43-29.18Q129.47-28.29 128.70-26.56ZM171.46-2.69L171.46-2.69L171.46-2.69Q168.38 1.28 160.77 1.28L160.77 1.28L160.77 1.28Q156.80 1.28 153.92-1.12L153.92-1.12L153.92-1.12Q151.04-3.52 151.04-6.98L151.04-6.98L151.04-6.98Q151.04-8.90 151.23-9.86L151.23-9.86L155.52-32.64L168.51-33.92L163.84-9.22L163.84-9.22Q163.58-7.81 163.58-6.98L163.58-6.98L163.58-6.98Q163.58-3.26 165.82-3.26L165.82-3.26L165.82-3.26Q168.32-3.26 170.11-6.66L170.11-6.66L170.11-6.66Q170.69-7.74 170.94-9.15L170.94-9.15L175.49-32.64L188.10-33.92L183.36-8.96L183.36-8.96Q183.17-8 183.17-6.98L183.17-6.98L183.17-6.98Q183.17-5.95 183.74-4.83L183.74-4.83L183.74-4.83Q184.32-3.71 186.18-3.46L186.18-3.46L186.18-3.46Q185.79-1.92 184.45-0.90L184.45-0.90L184.45-0.90Q181.63 1.28 178.59 1.28L178.59 1.28L178.59 1.28Q175.55 1.28 173.76 0.19L173.76 0.19L173.76 0.19Q171.97-0.90 171.46-2.69ZM192.58-6.40L192.58-6.40L192.58-6.40Q192.58-8.13 193.47-12.48L193.47-12.48L196.86-29.76L193.09-29.76L193.34-31.68L193.34-31.68Q201.02-33.98 208.45-39.62L208.45-39.62L211.52-39.62L209.98-32.64L214.98-32.64L214.40-29.76L209.47-29.76L206.21-12.48L206.21-12.48Q205.38-8.51 205.38-7.17L205.38-7.17L205.38-7.17Q205.38-4.10 208.06-3.46L208.06-3.46L208.06-3.46Q207.42-1.28 205.12 0L205.12 0L205.12 0Q202.82 1.28 199.55 1.28L199.55 1.28L199.55 1.28Q196.29 1.28 194.43-0.77L194.43-0.77L194.43-0.77Q192.58-2.82 192.58-6.40ZM239.68 0.83L235.58 0.70L235.58 0.70Q233.60 0.64 231.52 0.64L231.52 0.64L231.52 0.64Q229.44 0.64 227.39 0.90L227.39 0.90L227.39 0.90Q227.14-0.13 227.14-1.34L227.14-1.34L227.14-1.34Q227.14-3.90 228.58-5.44L228.58-5.44L228.58-5.44Q230.02-6.98 232.26-6.98L232.26-6.98L235.71-6.98L241.09-31.17L241.09-31.17Q239.10-29.18 235.01-29.18L235.01-29.18L235.01-29.18Q232.96-29.18 231.36-31.10L231.36-31.10L231.36-31.10Q229.76-32.90 229.50-35.46L229.50-35.46L229.50-35.46Q238.98-37.12 253.12-43.46L253.12-43.46L255.17-41.02L248.96-6.98L250.56-6.98L250.56-6.98Q254.40-6.98 256.38-7.68L256.38-7.68L256.38-7.68Q257.22-6.27 257.22-3.97L257.22-3.97L257.22-3.97Q257.22-1.66 255.52-0.29L255.52-0.29L255.52-0.29Q253.82 1.09 251.01 1.09L251.01 1.09L251.01 1.09Q245.31 1.09 239.68 0.83L239.68 0.83Z" fill="#ccc"></path></g></g><style>text {
  font-size: 64px;
  font-family: Arial Black;
  dominant-baseline: central;
  text-anchor: middle;
}</style></svg>