<svg xmlns="http://www.w3.org/2000/svg" width="120" height="80" viewBox="0 0 550 420" fill="none"><rect width="550" height="420" fill="#F6F6F6"></rect><g clip-path="url(#clip0)"><path d="M325.809 207.015C325.809 207.015 322.441 207.824 319.592 208.506L315.261 209.498C315.249 209.498 315.232 209.498 315.221 209.498C315.221 208.323 315.306 207.084 315.586 205.942C315.945 204.48 316.731 202.771 318.099 202.02C319.586 201.205 321.398 201.108 322.971 201.739C324.601 202.387 325.347 203.97 325.667 205.61C325.758 206.069 325.815 206.527 325.86 206.992L325.809 207.015ZM337.104 209.498C337.104 198.126 329.986 193.239 320.891 193.239C310.611 193.239 304.171 200.402 304.171 209.556C304.171 219.506 309.653 225.987 321.455 225.987C327.838 225.987 331.451 224.851 335.747 222.689L334.112 215.239C330.835 216.719 327.786 217.625 323.718 217.625C319.255 217.625 316.714 215.922 315.751 212.739H336.819C336.99 211.884 337.104 210.915 337.104 209.498Z" fill="black"></path><path d="M231.262 207.015C231.262 207.015 227.894 207.824 225.045 208.506L220.714 209.498C220.703 209.498 220.686 209.498 220.674 209.498C220.674 208.323 220.76 207.084 221.039 205.942C221.398 204.48 222.184 202.771 223.552 202.02C225.039 201.205 226.852 201.108 228.424 201.739C230.054 202.387 230.801 203.97 231.12 205.61C231.211 206.069 231.268 206.527 231.314 206.992L231.262 207.015ZM242.557 209.498C242.557 198.126 235.439 193.239 226.344 193.239C216.064 193.239 209.624 200.402 209.624 209.556C209.624 219.506 215.107 225.987 226.909 225.987C233.291 225.987 236.904 224.851 241.201 222.689L239.565 215.239C236.289 216.719 233.24 217.625 229.171 217.625C224.709 217.625 222.167 215.922 221.204 212.739H242.272C242.443 211.884 242.557 210.915 242.557 209.498Z" fill="black"></path><path d="M205.202 184.883H194.768V224.845H205.202V184.883Z" fill="black"></path><path d="M339.303 194.26H350.262L352.57 201.326C354.011 197.839 357.26 193.354 363.021 193.354C370.931 193.354 375.222 197.392 375.222 207.795V224.851H364.263C364.263 221.295 364.269 217.745 364.275 214.19C364.275 212.561 364.246 210.932 364.269 209.303C364.286 207.801 364.394 206.246 363.597 204.899C363.055 203.987 362.172 203.316 361.22 202.857C359.288 201.928 357.191 201.951 355.294 202.949C354.826 203.195 352.57 204.423 352.57 204.991V224.851H341.611V202.513L339.303 194.26Z" fill="black"></path><path d="M383.508 202.278H378.482V194.26H383.508V189.248L394.467 186.65V194.26H405.482V202.278H394.467V211.259C394.467 214.786 396.159 216.432 398.701 216.432C401.299 216.432 402.77 216.088 404.969 215.354L406.269 223.652C403.277 224.96 399.55 225.585 395.76 225.585C387.794 225.585 383.502 221.777 383.502 214.385V202.278H383.508Z" fill="black"></path><path d="M425.986 216.885C429.998 216.885 432.369 213.983 432.369 209.326C432.369 204.669 430.112 201.991 426.157 201.991C422.145 201.991 419.832 204.664 419.832 209.493C419.832 214.046 422.088 216.885 425.986 216.885ZM426.1 193.067C436.38 193.067 443.891 199.548 443.891 209.607C443.891 219.724 436.38 225.809 425.986 225.809C415.649 225.809 408.303 219.558 408.303 209.607C408.303 199.548 415.592 193.067 426.1 193.067Z" fill="black"></path><path d="M294.353 194.169C292.415 193.366 290.221 193.067 288.124 193.371C287.058 193.526 286.016 193.836 285.047 194.318C282.391 195.637 280.323 198.648 279.211 201.332C278.482 198.24 276.356 195.465 273.25 194.174C271.313 193.371 269.119 193.073 267.022 193.377C265.956 193.532 264.913 193.842 263.945 194.323C261.295 195.637 259.232 198.636 258.115 201.314V201.119L255.881 194.272H244.922L247.23 202.525V224.857H258.115V204.893C258.155 204.744 258.639 204.469 258.725 204.406C260.001 203.494 261.5 202.553 263.095 202.439C264.725 202.318 266.332 203.15 267.301 204.452C267.404 204.595 267.501 204.738 267.592 204.887C268.39 206.235 268.281 207.789 268.264 209.292C268.247 210.921 268.27 212.549 268.27 214.178C268.264 217.734 268.258 221.284 268.258 224.84H279.217V207.789C279.217 207.703 279.217 207.617 279.217 207.537V204.905C279.24 204.761 279.741 204.474 279.832 204.411C281.109 203.5 282.608 202.559 284.203 202.444C285.833 202.324 287.44 203.155 288.409 204.457C288.512 204.601 288.608 204.744 288.7 204.893C289.497 206.241 289.389 207.795 289.372 209.298C289.355 210.926 289.378 212.555 289.378 214.184C289.372 217.74 289.366 221.29 289.366 224.846H300.325V207.789C300.325 202.788 299.613 196.348 294.353 194.169Z" fill="black"></path><path d="M469.808 193.354C464.047 193.354 460.804 197.845 459.357 201.326L457.049 194.26H446.09L448.398 202.513V224.845H459.357V204.211C460.918 203.935 469.392 205.507 470.999 206.097V193.394C470.612 193.371 470.218 193.354 469.808 193.354Z" fill="black"></path><path d="M179.051 207.015C179.051 207.015 175.683 207.824 172.834 208.506L168.503 209.498C168.492 209.498 168.475 209.498 168.463 209.498C168.463 208.323 168.549 207.084 168.828 205.942C169.187 204.48 169.973 202.771 171.341 202.02C172.828 201.205 174.641 201.108 176.213 201.739C177.843 202.387 178.59 203.97 178.909 205.61C179 206.069 179.057 206.527 179.103 206.992L179.051 207.015ZM190.346 209.498C190.346 198.126 183.228 193.239 174.133 193.239C163.853 193.239 157.413 200.402 157.413 209.556C157.413 219.506 162.896 225.987 174.697 225.987C181.08 225.987 184.693 224.851 188.99 222.689L187.354 215.239C184.078 216.719 181.029 217.625 176.96 217.625C172.498 217.625 169.956 215.922 168.993 212.739H190.061C190.232 211.884 190.346 210.915 190.346 209.498Z" fill="black"></path><path d="M110.303 178.5C93.013 178.5 79 192.603 79 210.003C79 227.397 93.013 241.506 110.303 241.506C127.593 241.506 141.606 227.403 141.606 210.003C141.6 192.603 127.587 178.5 110.303 178.5ZM102.479 223.125H97.2642V196.875H102.479V223.125ZM123.341 223.125H107.693V217.877H123.341V223.125ZM123.341 212.624H107.693V207.376H123.341V212.624ZM123.341 202.123H107.693V196.875H123.341V202.123Z" fill="black"></path></g><defs><clipPath id="clip0"><rect width="392" height="63" fill="white" transform="translate(79 178.5)"></rect></clipPath></defs></svg>