<svg xmlns="http://www.w3.org/2000/svg" width="28" height="26" viewBox="0 0 28 26" fill="currentcolor"><path fill-rule="evenodd" clip-rule="evenodd" d="M7.0697 18.3809C6.12819 17.9807 5.24967 17.4483 4.47499 16.7768C2.37146 14.9557 1.16628 12.3432 1.16628 9.6087C1.16628 4.31035 5.61485 0 11.0831 0C16.5513 0 20.9999 4.31035 20.9999 9.6087C20.9999 12.7038 19.4354 15.5559 16.9398 17.3386L15.275 15.7255C14.4175 14.8901 13.0455 14.742 12.0211 15.3683L7.0697 18.3809ZM8.16638 8.06C8.16638 9.38148 9.2759 10.4565 10.6398 10.4565H11.5264C11.9254 10.4565 12.2498 10.7708 12.2498 11.1687C12.2498 11.5553 11.9254 11.8696 11.5264 11.8696H9.0414C8.55839 11.8696 8.16638 12.2494 8.16638 12.7174C8.16638 13.1854 8.55839 13.5652 9.0414 13.5652H10.2081V14.4119C10.2081 14.8799 10.6001 15.2597 11.0831 15.2597C11.5661 15.2597 11.9581 14.8799 11.9581 14.4119V13.5223C13.1155 13.3233 13.9998 12.3455 13.9998 11.1574C13.9998 9.83591 12.8903 8.76087 11.5264 8.76087H10.6398C10.2407 8.76087 9.91641 8.44661 9.91641 8.0487C9.91641 7.66209 10.2407 7.34783 10.6398 7.34783H13.1248C13.6078 7.34783 13.9998 6.968 13.9998 6.5C13.9998 6.032 13.6078 5.65217 13.1248 5.65217H11.9581V4.80435C11.9581 4.33635 11.5661 3.95652 11.0831 3.95652C10.6001 3.95652 10.2081 4.33635 10.2081 4.80435V5.69513C9.05073 5.89409 8.16638 6.87191 8.16638 8.06ZM22.1666 12.4348H26.8333C27.4785 12.4348 28 12.9412 28 13.5652V18.087C28 18.5437 27.7165 18.9563 27.2802 19.1315C27.1355 19.1891 26.9838 19.2174 26.8333 19.2174C26.53 19.2174 26.2313 19.1021 26.0085 18.8862L24.4999 17.4245L18.9069 22.8427C18.4507 23.2847 17.7133 23.2847 17.2572 22.8427L13.2438 18.954L1.77994 25.8304C1.5886 25.9457 1.37743 26 1.16743 26C0.776587 26 0.395081 25.8101 0.174578 25.4642C-0.16376 24.934 0.00424221 24.2376 0.552584 23.9087L12.8028 16.5609C13.2601 16.2862 13.8598 16.3506 14.2413 16.7225L18.0832 20.445L22.8503 15.8261L21.3417 14.3644C21.0081 14.0411 20.9077 13.555 21.0886 13.1323C21.2682 12.7106 21.6952 12.4348 22.1666 12.4348Z" fill="currentcolor"></path></svg>