<svg xmlns="http://www.w3.org/2000/svg" width="25" height="25" viewBox="0 0 25 25" fill="currentcolor"><path fill-rule="evenodd" clip-rule="evenodd" d="M24.1667 6.66667H19.1667C18.7083 6.66667 18.3333 6.29167 18.3333 5.425V0.833333C18.3333 0.61232 18.4211 0.400358 18.5774 0.244078C18.7337 0.0877973 18.9457 0 19.1667 0C20.7138 0 22.1975 0.614582 23.2915 1.70854C24.3854 2.80251 25 4.28624 25 5.83333C25 6.05435 24.9122 6.26631 24.7559 6.42259C24.5996 6.57887 24.3877 6.66667 24.1667 6.66667ZM10.25 10.9C10.527 11.8218 11.0306 12.6594 11.7148 13.3363C12.399 14.0133 13.242 14.5079 14.1667 14.775C14.7095 14.925 15.2702 15.0006 15.8333 15C17.3804 15 18.8642 14.3854 19.9581 13.2915C21.0521 12.1975 21.6667 10.7138 21.6667 9.16668C21.6667 8.94566 21.5789 8.7337 21.4226 8.57742C21.2663 8.42114 21.0543 8.33335 20.8333 8.33335H17.9167C17.5851 8.33335 17.2672 8.20165 17.0328 7.96723C16.7984 7.73281 16.6667 7.41487 16.6667 7.08334V4.16668C16.6667 3.94566 16.5789 3.7337 16.4226 3.57742C16.2663 3.42114 16.0543 3.33334 15.8333 3.33334C14.9633 3.33163 14.1038 3.52456 13.318 3.89802C12.5322 4.27147 11.8398 4.81599 11.2917 5.49168C10.6912 6.24044 10.2825 7.12438 10.101 8.06684C9.9195 9.00929 9.97064 9.9818 10.25 10.9ZM2.86612 9.53278C3.10054 9.29836 3.41848 9.16667 3.75 9.16667H6.25C6.58152 9.16667 6.89946 9.29836 7.13388 9.53278C7.3683 9.7672 7.5 10.0851 7.5 10.4167V21.6667H2.5V10.4167C2.5 10.0851 2.6317 9.7672 2.86612 9.53278ZM25 23.3333H0V25H25V23.3333ZM11.25 15.8333C10.9185 15.8333 10.6005 15.965 10.3661 16.1994C10.1317 16.4339 10 16.7518 10 17.0833V21.6667H15V17.0833C15 16.7518 14.8683 16.4339 14.6339 16.1994C14.3995 15.965 14.0815 15.8333 13.75 15.8333H11.25ZM17.8661 18.6994C18.1005 18.465 18.4185 18.3333 18.75 18.3333H21.25C21.5815 18.3333 21.8995 18.465 22.1339 18.6994C22.3683 18.9339 22.5 19.2518 22.5 19.5833V21.6667H17.5V19.5833C17.5 19.2518 17.6317 18.9339 17.8661 18.6994ZM0 0H11.6667V1.66667H0V0ZM7.5 3.33333H0V5H7.5V3.33333Z" fill="currentcolor"></path></svg>