<svg xmlns="http://www.w3.org/2000/svg" width="25" height="25" viewBox="0 0 25 25" fill="none"><path d="M21.1538 14.4231C21.1538 20.2645 16.4184 25 10.5769 25C4.73545 25 0 20.2645 0 14.4231C0 8.58161 4.73545 3.84615 10.5769 3.84615C11.108 3.84615 11.5385 4.27665 11.5385 4.80769V13.4615H20.1923C20.7234 13.4615 21.1538 13.892 21.1538 14.4231ZM14.4231 0C13.892 0 13.4615 0.430496 13.4615 0.961539V10.5769C13.4615 11.108 13.892 11.5385 14.4231 11.5385H24.0385C24.5695 11.5385 25 11.108 25 10.5769C24.9934 4.7382 20.2618 0.00662368 14.4231 0Z" fill="currentcolor"></path></svg>