<svg xmlns="http://www.w3.org/2000/svg" width="98" height="60" viewBox="0 0 98 60" fill="none"><path fill-rule="evenodd" clip-rule="evenodd" d="M67.4485 28.6133L59.8886 21.0781L52.3287 28.6133H67.4485ZM70.2816 28.6133L70.2561 28.5879L61.3051 19.6663L66.3242 14.6636L80.3197 28.6133H70.2816ZM68.2509 30.5866H51.5675L59.9092 38.901L68.2509 30.5866ZM49.4956 28.6133L49.5417 28.5674L58.4721 19.6663L41.5742 2.82378L15.6999 28.6133H49.4956ZM14.8975 30.5866H48.7345L49.5417 31.3912L58.4927 40.3129L41.5742 57.1759L14.8975 30.5866ZM12.8669 28.6133H0V30.5866H12.0644L12.8923 31.4117L40.1577 58.5878L41.5742 59.9997L42.9908 58.5878L59.9092 41.7247L64.9077 46.7068L66.3242 48.1187L67.7408 46.7068L83.1068 31.3912L83.914 30.5866H98V28.6133H83.1528L83.1068 28.5674L67.7408 13.2517L66.3242 11.8398L64.9077 13.2517L59.8886 18.2544L42.9908 1.41189L41.5742 0L40.1577 1.41189L12.8923 28.5879L12.8669 28.6133ZM81.0809 30.5866L66.3242 45.2949L61.3258 40.3129L70.2561 31.4117L71.084 30.5866H81.0809Z" fill="#121212"></path></svg>