<svg xmlns="http://www.w3.org/2000/svg" width="50" height="50" viewBox="0 0 50 50" fill="none"><rect opacity="0.1" width="50" height="50" rx="25" fill="#8DCF9B"></rect><path d="M24.5 24.9999C25.4889 24.9999 26.4556 24.7067 27.2779 24.1573C28.1001 23.6079 28.741 22.827 29.1194 21.9134C29.4978 20.9997 29.5969 19.9944 29.4039 19.0245C29.211 18.0546 28.7348 17.1637 28.0355 16.4644C27.3363 15.7651 26.4454 15.2889 25.4755 15.096C24.5055 14.9031 23.5002 15.0021 22.5866 15.3805C21.673 15.759 20.8921 16.3998 20.3427 17.2221C19.7932 18.0443 19.5 19.011 19.5 19.9999C19.5013 21.3256 20.0285 22.5966 20.9659 23.534C21.9033 24.4714 23.1743 24.9986 24.5 24.9999ZM24.5 16.6666C25.1593 16.6666 25.8037 16.8621 26.3519 17.2284C26.9001 17.5946 27.3273 18.1152 27.5796 18.7243C27.8319 19.3334 27.8979 20.0036 27.7693 20.6502C27.6407 21.2968 27.3232 21.8908 26.857 22.357C26.3908 22.8231 25.7969 23.1406 25.1503 23.2692C24.5037 23.3978 23.8335 23.3318 23.2244 23.0795C22.6153 22.8272 22.0947 22.4 21.7284 21.8518C21.3622 21.3037 21.1667 20.6592 21.1667 19.9999C21.1667 19.1159 21.5179 18.268 22.143 17.6429C22.7681 17.0178 23.6159 16.6666 24.5 16.6666Z" fill="#8DCF9B"></path><path d="M24.5 26.6666C22.5116 26.6688 20.6052 27.4597 19.1991 28.8657C17.7931 30.2718 17.0022 32.1782 17 34.1666C17 34.3876 17.0878 34.5996 17.2441 34.7559C17.4004 34.9121 17.6123 34.9999 17.8333 34.9999C18.0543 34.9999 18.2663 34.9121 18.4226 34.7559C18.5789 34.5996 18.6667 34.3876 18.6667 34.1666C18.6667 32.6195 19.2812 31.1358 20.3752 30.0418C21.4692 28.9479 22.9529 28.3333 24.5 28.3333C26.0471 28.3333 27.5308 28.9479 28.6248 30.0418C29.7188 31.1358 30.3333 32.6195 30.3333 34.1666C30.3333 34.3876 30.4211 34.5996 30.5774 34.7559C30.7337 34.9121 30.9457 34.9999 31.1667 34.9999C31.3877 34.9999 31.5996 34.9121 31.7559 34.7559C31.9122 34.5996 32 34.3876 32 34.1666C31.9978 32.1782 31.2069 30.2718 29.8009 28.8657C28.3948 27.4597 26.4884 26.6688 24.5 26.6666Z" fill="#8DCF9B"></path></svg>