<svg xmlns="http://www.w3.org/2000/svg" width="50" height="50" viewBox="0 0 50 50" fill="none"><rect width="50" height="50" rx="25" fill="#F4FAF5"></rect><path d="M31.6669 15H18.3334C17.4493 15 16.6015 15.3512 15.9763 15.9763C15.3512 16.6015 15 17.4493 15 18.3334V28.3335C15 29.2176 15.3512 30.0654 15.9763 30.6906C16.6015 31.3157 17.4493 31.6669 18.3334 31.6669H20.7501L24.4593 34.8028C24.6098 34.9301 24.8005 35 24.9976 35C25.1948 35 25.3855 34.9301 25.536 34.8028L29.2502 31.6669H31.6669C32.551 31.6669 33.3988 31.3157 34.024 30.6906C34.6491 30.0654 35.0003 29.2176 35.0003 28.3335V18.3334C35.0003 17.4493 34.6491 16.6015 34.024 15.9763C33.3988 15.3512 32.551 15 31.6669 15ZM33.3336 28.3335C33.3336 28.7756 33.158 29.1995 32.8454 29.512C32.5329 29.8246 32.1089 30.0002 31.6669 30.0002H29.2502C28.8563 30.0003 28.4751 30.14 28.1744 30.3944L25.0001 33.0753L21.8276 30.3944C21.5264 30.1396 21.1446 29.9999 20.7501 30.0002H18.3334C17.8913 30.0002 17.4674 29.8246 17.1549 29.512C16.8423 29.1995 16.6667 28.7756 16.6667 28.3335V18.3334C16.6667 17.8913 16.8423 17.4674 17.1549 17.1549C17.4674 16.8423 17.8913 16.6667 18.3334 16.6667H31.6669C32.1089 16.6667 32.5329 16.8423 32.8454 17.1549C33.158 17.4674 33.3336 17.8913 33.3336 18.3334V28.3335Z" fill="#8DCF9B"></path><path d="M20.8334 20.8334H25.0001C25.2212 20.8334 25.4331 20.7456 25.5894 20.5893C25.7457 20.4331 25.8335 20.2211 25.8335 20.0001C25.8335 19.7791 25.7457 19.5671 25.5894 19.4108C25.4331 19.2545 25.2212 19.1667 25.0001 19.1667H20.8334C20.6124 19.1667 20.4004 19.2545 20.2442 19.4108C20.0879 19.5671 20.0001 19.7791 20.0001 20.0001C20.0001 20.2211 20.0879 20.4331 20.2442 20.5893C20.4004 20.7456 20.6124 20.8334 20.8334 20.8334Z" fill="#8DCF9B"></path><path d="M29.1669 22.5001H20.8334C20.6124 22.5001 20.4004 22.5879 20.2442 22.7442C20.0879 22.9005 20.0001 23.1124 20.0001 23.3335C20.0001 23.5545 20.0879 23.7664 20.2442 23.9227C20.4004 24.079 20.6124 24.1668 20.8334 24.1668H29.1669C29.3879 24.1668 29.5998 24.079 29.7561 23.9227C29.9124 23.7664 30.0002 23.5545 30.0002 23.3335C30.0002 23.1124 29.9124 22.9005 29.7561 22.7442C29.5998 22.5879 29.3879 22.5001 29.1669 22.5001Z" fill="#8DCF9B"></path><path d="M29.1669 25.8335H20.8334C20.6124 25.8335 20.4004 25.9213 20.2442 26.0776C20.0879 26.2339 20.0001 26.4458 20.0001 26.6668C20.0001 26.8878 20.0879 27.0998 20.2442 27.2561C20.4004 27.4124 20.6124 27.5002 20.8334 27.5002H29.1669C29.3879 27.5002 29.5998 27.4124 29.7561 27.2561C29.9124 27.0998 30.0002 26.8878 30.0002 26.6668C30.0002 26.4458 29.9124 26.2339 29.7561 26.0776C29.5998 25.9213 29.3879 25.8335 29.1669 25.8335Z" fill="#8DCF9B"></path></svg>