<svg xmlns="http://www.w3.org/2000/svg" width="58" height="61" viewBox="0 0 58 61" fill="none"><path d="M8.6074 42.0107C12.8089 42.0107 16.2148 38.6048 16.2148 34.4033C16.2148 30.2018 12.8089 26.7959 8.6074 26.7959C4.40595 26.7959 1 30.2018 1 34.4033C1 38.6048 4.40595 42.0107 8.6074 42.0107Z" stroke="black" stroke-width="2"></path><path d="M21.5019 16.2148C25.7034 16.2148 29.1093 12.8089 29.1093 8.6074C29.1093 4.40595 25.7034 1 21.5019 1C17.3005 1 13.8945 4.40595 13.8945 8.6074C13.8945 12.8089 17.3005 16.2148 21.5019 16.2148Z" stroke="black" stroke-width="2"></path><path d="M35.7002 31.6953C39.9016 31.6953 43.3076 28.2893 43.3076 24.0879C43.3076 19.8864 39.9016 16.4805 35.7002 16.4805C31.4987 16.4805 28.0928 19.8864 28.0928 24.0879C28.0928 28.2893 31.4987 31.6953 35.7002 31.6953Z" stroke="black" stroke-width="2"></path><path d="M48.6084 47.1696C52.8098 47.1696 56.2158 43.7637 56.2158 39.5622C56.2158 35.3608 52.8098 31.9548 48.6084 31.9548C44.4069 31.9548 41.001 35.3608 41.001 39.5622C41.001 43.7637 44.4069 47.1696 48.6084 47.1696Z" stroke="black" stroke-width="2"></path><path d="M35.5228 31.9688V60.9998M48.7344 47.443V60.9871M20.997 16.4883V33.1606L28.7365 38.1092V60.9902M8.11328 42.286V51.911H22.3034V60.9871" stroke="black" stroke-width="2"></path></svg>