<svg xmlns="http://www.w3.org/2000/svg" width="62" height="61" viewBox="0 0 62 61" fill="none"><path fill-rule="evenodd" clip-rule="evenodd" d="M27 8.5V26.5C27 30.0898 24.0899 33 20.5 33C16.9102 33 14 30.0899 14 26.5V8.5C14 4.91015 16.9102 2 20.5 2C24.0899 2 27 4.91015 27 8.5ZM12 8.5C12 3.80558 15.8056 0 20.5 0C25.1944 0 29 3.80558 29 8.5V26.5C29 31.1944 25.1944 35 20.5 35C15.8056 35 12 31.1944 12 26.5V8.5ZM41.5 22C44.5376 22 47 19.5376 47 16.5C47 13.4624 44.5376 11 41.5 11C38.4624 11 36 13.4624 36 16.5C36 19.5376 38.4624 22 41.5 22ZM41.5 24C45.6421 24 49 20.6421 49 16.5C49 12.3579 45.6421 9 41.5 9C37.3579 9 34 12.3579 34 16.5C34 20.6421 37.3579 24 41.5 24ZM42.8632 58.6403C39.1021 60.1982 35.071 61 31 61C26.929 61 22.8979 60.1982 19.1368 58.6403C15.3757 57.0824 11.9583 54.7989 9.07968 51.9203C6.20107 49.0417 3.91763 45.6243 2.35973 41.8632C0.801836 38.1021 0 34.071 0 30V29H0.999999L7.5 29L7.5 31L2.01725 31C2.13687 34.4672 2.87779 37.8876 4.20749 41.0978C5.66487 44.6163 7.801 47.8132 10.4939 50.5061C13.1868 53.199 16.3837 55.3351 19.9022 56.7925C23.4206 58.2499 27.1917 59 31 59C34.8083 59 38.5794 58.2499 42.0978 56.7925C45.6163 55.3351 48.8132 53.199 51.5061 50.5061C54.199 47.8132 56.3351 44.6163 57.7925 41.0978C59.1222 37.8877 59.8631 34.4672 59.9828 31L33.5 31V29L61 29H62V30C62 34.071 61.1982 38.1021 59.6403 41.8632C58.0824 45.6243 55.7989 49.0417 52.9203 51.9203C50.0417 54.7989 46.6243 57.0824 42.8632 58.6403Z" fill="#121212"></path></svg>