<svg xmlns="http://www.w3.org/2000/svg" width="60" height="60" viewBox="0 0 60 60" fill="none"><path d="M30.0115 7.23803e-06C24.723 -0.00367286 19.5281 1.39604 14.9573 4.05635C14.2603 4.47264 13.573 4.90839 12.9147 5.3634C7.44186 9.15007 3.38539 14.6509 1.38526 20.9984C-0.614867 27.3458 -0.444969 34.1786 1.86838 40.4188C1.96519 40.7092 2.08145 40.9899 2.19762 41.2706C2.39124 41.7482 2.59467 42.2131 2.80765 42.6649C2.8851 42.8391 2.96255 43.0135 3.04968 43.1877C5.89744 49.0029 10.5494 53.7411 16.3114 56.695C22.0734 59.6489 28.6363 60.6601 35.0202 59.5776C41.4041 58.4951 47.2666 55.377 51.7327 50.6887C56.1988 46.0004 59.0289 39.9934 59.8004 33.5645C59.8876 32.8771 59.9553 32.1802 59.9843 31.4831C59.9843 30.9894 59.9843 30.515 59.9843 30.0116C59.9843 22.0587 56.8278 14.4309 51.208 8.8038C45.5881 3.17665 37.9644 0.010269 30.0115 7.23803e-06ZM1.93621 30.0116C1.93916 25.2663 3.14495 20.5993 5.44066 16.4464C7.73637 12.2934 11.0471 8.7901 15.0639 6.26368C18.2802 7.83988 20.9705 10.315 22.8088 13.3891C22.0143 13.9806 21.4205 14.8014 21.1073 15.7411C20.7941 16.6807 20.7767 17.6939 21.0574 18.6438C21.3382 19.5936 21.9035 20.4345 22.6772 21.053C23.4509 21.6714 24.3955 22.0376 25.3839 22.1021C25.3839 22.3345 25.3839 22.5571 25.3839 22.7895C25.38 24.5233 25.129 26.2478 24.6385 27.9108C16.7655 30.074 9.55333 34.1592 3.64979 39.7993C2.49553 36.6661 1.91506 33.3505 1.93621 30.0116ZM23.8835 30.147C22.4514 33.4234 20.0952 36.2115 17.1034 38.1699C14.1117 40.1283 10.6139 41.1722 7.03819 41.174C6.40763 41.176 5.77747 41.1436 5.15042 41.077C10.4659 36.0325 16.878 32.288 23.8835 30.1373V30.147ZM30.0115 58.0869C24.8848 58.0846 19.8567 56.6786 15.4723 54.0213C11.088 51.3641 7.51493 47.5571 5.14073 43.0133C5.77 43.0714 6.39928 43.1102 7.07696 43.1102C11.2855 43.1049 15.3886 41.7934 18.8203 39.3571C22.252 36.9207 24.8431 33.4795 26.236 29.5081C36.8666 26.8406 48.0935 27.9458 57.9999 32.6351C57.3459 39.6025 54.1135 46.0746 48.9361 50.7828C43.7587 55.491 37.0095 58.0958 30.0115 58.0869ZM58.0869 30.5635C48.3041 26.105 37.327 24.9859 26.8458 27.3783C27.1992 25.8708 27.3811 24.3282 27.388 22.7798C27.388 22.4603 27.388 22.1408 27.388 21.8117C28.4446 21.4145 29.3293 20.6607 29.8889 19.6804C30.4485 18.7001 30.6478 17.5551 30.4526 16.4433C30.2573 15.3315 29.6797 14.3229 28.8196 13.5919C27.9595 12.8609 26.8709 12.4537 25.7422 12.4404C25.3766 12.4407 25.0123 12.4861 24.6578 12.5758C22.8395 9.47138 20.2392 6.89784 17.1162 5.11168C21.3949 2.88658 26.1747 1.80118 30.9948 1.96011C35.8149 2.11904 40.513 3.51693 44.6358 6.01905C48.7587 8.52117 52.1673 12.0431 54.5335 16.2455C56.8997 20.4478 58.1435 25.1889 58.145 30.0116C58.0869 30.1858 58.0772 30.3698 58.0675 30.5538L58.0869 30.5635Z" fill="#121212"></path></svg>