<svg xmlns="http://www.w3.org/2000/svg" width="90" height="90" viewBox="0 0 90 90" fill="none"><path fill-rule="evenodd" clip-rule="evenodd" d="M34.0039 1.39847C34.1854 8.42575 35.7333 15.3332 38.5479 21.6482C41.549 28.3817 45.9099 34.2611 51.2931 38.8316C56.6764 43.4021 62.9379 46.5411 69.593 48.0058C75.8347 49.3795 82.2657 49.246 88.4478 47.6211L83.3891 26.732C80.1045 27.5091 76.7066 27.5379 73.4037 26.811C69.687 25.993 66.1902 24.24 63.1837 21.6874C60.1772 19.1349 57.7417 15.8513 56.0656 12.0907C54.5762 8.74887 53.7219 5.10993 53.55 1.39847H34.0039ZM90 48.6293C89.5928 48.75 89.1844 48.8644 88.775 48.9724C82.4057 50.6525 75.7784 50.793 69.3466 49.3774C62.5014 47.8709 56.0612 44.6422 50.5242 39.9412C44.9871 35.2402 40.5017 29.1928 37.4148 22.2669C34.5144 15.7595 32.9218 8.64038 32.7399 1.39847C32.7283 0.932775 32.7224 0.466576 32.7224 0H54.7812C54.7812 3.97853 55.6083 7.90375 57.1987 11.472C58.7891 15.0402 61.1 18.1558 63.9527 20.5778C66.8054 22.9998 70.1234 24.6632 73.6501 25.4394C77.1768 26.2156 80.8175 26.0837 84.2908 25.054L90 48.6293ZM45.8154 46.9238C52.6668 47.347 59.3384 49.509 65.3142 53.2426L54.6528 74.1474C51.5741 72.2238 48.1368 71.11 44.607 70.8919C41.0771 70.6739 37.5492 71.3576 34.2963 72.8901C31.0433 74.4225 28.1524 76.7627 25.8473 79.7296C23.5422 82.6965 21.8846 86.2106 21.0027 90L0 84.0122C1.71164 76.6571 4.92901 69.8363 9.40321 64.0776C13.8774 58.3189 19.4885 53.7766 25.8025 50.8021C32.1164 47.8276 38.964 46.5006 45.8154 46.9238Z" fill="#121212"></path></svg>