<svg xmlns="http://www.w3.org/2000/svg" width="90" height="90" viewBox="0 0 90 90" fill="none"><path fill-rule="evenodd" clip-rule="evenodd" d="M31.1668 0L73.5491 33.3026L25.125 29.3211L18.0175 57.753L0 26.0102L24.168 27.9974L31.1668 0ZM25.4299 28.1012L69.5304 31.7273L31.9127 2.16848L25.4299 28.1012ZM23.863 29.2173L2.2462 27.4399L17.5621 54.4229L23.863 29.2173ZM23.5234 62.5712L16.6667 90L0 60.6371L23.5234 62.5712ZM23.5234 62.5712L30.4167 34.9962L70.4167 66.4269L23.5234 62.5712ZM80 58.1557C85.5229 58.1557 90 53.712 90 48.2302C90 42.7485 85.5229 38.3047 80 38.3047C74.4771 38.3047 70 42.7485 70 48.2302C70 53.712 74.4771 58.1557 80 58.1557Z" fill="#121212"></path></svg>