<svg xmlns="http://www.w3.org/2000/svg" width="90" height="90" viewBox="0 0 90 90" fill="none"><path fill-rule="evenodd" clip-rule="evenodd" d="M13.4676 39.0082C17.8205 31.6339 25.8497 26.6868 35.0346 26.6868C36.5401 26.6868 38.0146 26.8197 39.4469 27.0744C40.1019 25.1186 40.4566 23.0253 40.4566 20.8491C40.4566 10.0254 31.6802 1.25094 20.8539 1.25094C10.0277 1.25094 1.25124 10.0254 1.25124 20.8491C1.25124 29.0603 6.30231 36.0921 13.4676 39.0082ZM12.8546 40.1092C5.30706 36.9724 0 29.5303 0 20.8491C0 9.33443 9.33661 0 20.8539 0C32.3713 0 41.7079 9.33443 41.7079 20.8491C41.7079 23.1103 41.3478 25.2875 40.6819 27.3264C51.7828 29.8863 60.0593 39.8296 60.0593 51.7057C60.0593 65.5232 48.8554 76.7245 35.0346 76.7245C21.2138 76.7245 10.0099 65.5232 10.0099 51.7057C10.0099 47.5207 11.0376 43.5756 12.8546 40.1092ZM13.1195 80.8943L21.0072 85.4471L13.1195 90V80.8943ZM88.8964 18.6661C87.0544 16.187 83.551 15.6703 81.0712 17.5119L64.5492 29.7824C62.0696 31.624 61.5526 35.1266 63.3946 37.6057C65.2367 40.0847 68.7402 40.6016 71.2198 38.76L87.7418 26.4895C90.2215 24.6479 90.7384 21.1453 88.8964 18.6661Z" fill="#121212"></path></svg>