<svg xmlns="http://www.w3.org/2000/svg" width="57" height="62" viewBox="0 0 57 62" fill="none"><path d="M28.2836 35.5855C33.7225 35.5855 38.1317 31.1764 38.1317 25.7375C38.1317 20.2985 33.7225 15.8894 28.2836 15.8894C22.8447 15.8894 18.4355 20.2985 18.4355 25.7375C18.4355 31.1764 22.8447 35.5855 28.2836 35.5855Z" stroke="#121212" stroke-width="2"></path><path d="M7.21839 61.0003C10.6527 61.0003 13.4368 58.2162 13.4368 54.7819C13.4368 51.3475 10.6527 48.5635 7.21839 48.5635C3.78407 48.5635 1 51.3475 1 54.7819C1 58.2162 3.78407 61.0003 7.21839 61.0003Z" stroke="#121212" stroke-width="2"></path><path d="M49.6757 17.4254C52.909 17.4254 55.5301 14.8043 55.5301 11.571C55.5301 8.33766 52.909 5.71655 49.6757 5.71655C46.4424 5.71655 43.8213 8.33766 43.8213 11.571C43.8213 14.8043 46.4424 17.4254 49.6757 17.4254Z" stroke="#121212" stroke-width="2"></path><path d="M31.5377 56.2749C35.1721 56.2749 38.1184 53.3286 38.1184 49.6942C38.1184 46.0598 35.1721 43.1135 31.5377 43.1135C27.9033 43.1135 24.957 46.0598 24.957 49.6942C24.957 53.3286 27.9033 56.2749 31.5377 56.2749Z" stroke="#121212" stroke-width="2"></path><path d="M49.6792 49.0223C51.9102 49.0223 53.7188 47.2137 53.7188 44.9827C53.7188 42.7517 51.9102 40.9431 49.6792 40.9431C47.4482 40.9431 45.6396 42.7517 45.6396 44.9827C45.6396 47.2137 47.4482 49.0223 49.6792 49.0223Z" stroke="#121212" stroke-width="2"></path><path d="M9.39211 9.07915C11.6231 9.07915 13.4317 7.27057 13.4317 5.03957C13.4317 2.80858 11.6231 1 9.39211 1C7.16112 1 5.35254 2.80858 5.35254 5.03957C5.35254 7.27057 7.16112 9.07915 9.39211 9.07915Z" stroke="#121212" stroke-width="2"></path><path d="M12.2976 8.48364L21.1932 17.9235M37.1712 20.4731L44.6142 15.2089M46.2606 42.0691L36.0945 32.6292M30.0955 42.7954L29.371 36.0803M11.0186 49.16L21.9109 33.91" stroke="#121212" stroke-width="2"></path></svg>