<svg xmlns="http://www.w3.org/2000/svg" width="25" height="25" viewBox="0 0 25 25" fill="none"><path d="M17.8374 9.89764C18.2918 9.02899 19.0793 8.37591 20.0586 8.06069C20.4684 7.92844 20.8908 7.87772 21.3112 7.87591V2.71739C21.3112 1.2192 20.0073 0 18.4051 0H2.90607C1.30386 0 0 1.2192 0 2.71739V20.8333C0 22.3315 1.30386 23.5507 2.90607 23.5507H12.5436L12.4389 23.2663C12.0176 22.1168 12.0999 20.8886 12.6685 19.8025L17.8374 9.89764ZM3.87476 5.43478H15.499C16.0347 5.43478 16.4677 5.84058 16.4677 6.34058C16.4677 6.84058 16.0347 7.24638 15.499 7.24638H3.87476C3.33907 7.24638 2.90607 6.84058 2.90607 6.34058C2.90607 5.84058 3.33907 5.43478 3.87476 5.43478ZM3.87476 9.05797H14.5303C15.066 9.05797 15.499 9.46377 15.499 9.96377C15.499 10.4638 15.066 10.8696 14.5303 10.8696H3.87476C3.33907 10.8696 2.90607 10.4638 2.90607 9.96377C2.90607 9.46377 3.33907 9.05797 3.87476 9.05797ZM10.6556 18.1159H3.87476C3.33907 18.1159 2.90607 17.7101 2.90607 17.2101C2.90607 16.7101 3.33907 16.3043 3.87476 16.3043H10.6556C11.1913 16.3043 11.6243 16.7101 11.6243 17.2101C11.6243 17.7101 11.1913 18.1159 10.6556 18.1159ZM3.87476 14.4928C3.33907 14.4928 2.90607 14.087 2.90607 13.587C2.90607 13.087 3.33907 12.6812 3.87476 12.6812H12.593C13.1286 12.6812 13.5616 13.087 13.5616 13.587C13.5616 14.087 13.1286 14.4928 12.593 14.4928H3.87476ZM24.8023 13.0752L19.6315 22.9837C19.2895 23.6368 18.6976 24.1259 17.9643 24.3614L16.1326 24.9502C16.0289 24.9837 15.9214 25 15.8177 25C15.4157 25 15.0399 24.7645 14.9023 24.3886L14.2717 22.6757C14.0189 21.9873 14.0683 21.25 14.4093 20.5987L19.5801 10.692C19.8058 10.2572 20.201 9.93116 20.6902 9.77355C21.1785 9.61594 21.7045 9.64493 22.1694 9.8587L23.9111 10.6531C24.3761 10.865 24.7248 11.2346 24.8934 11.692C25.0619 12.1495 25.03 12.6404 24.8023 13.0752Z" fill="#121212"></path></svg>