<svg xmlns="http://www.w3.org/2000/svg" width="50" height="50" viewBox="0 0 50 50" fill="none"><rect opacity="0.1" width="50" height="50" rx="25" fill="#8DCF9B"></rect><path d="M30.8333 16.6667H30V15.8333C30 15.3733 29.6275 15 29.1667 15C28.7058 15 28.3333 15.3733 28.3333 15.8333V16.6667H21.6667V15.8333C21.6667 15.3733 21.2942 15 20.8333 15C20.3725 15 20 15.3733 20 15.8333V16.6667H19.1667C16.8692 16.6667 15 18.5358 15 20.8333V30.8333C15 33.1308 16.8692 35 19.1667 35H30.8333C33.1308 35 35 33.1308 35 30.8333V20.8333C35 18.5358 33.1308 16.6667 30.8333 16.6667ZM19.1667 18.3333H30.8333C32.2117 18.3333 33.3333 19.455 33.3333 20.8333V21.6667H16.6667V20.8333C16.6667 19.455 17.7883 18.3333 19.1667 18.3333ZM30.8333 33.3333H19.1667C17.7883 33.3333 16.6667 32.2117 16.6667 30.8333V23.3333H33.3333V30.8333C33.3333 32.2117 32.2117 33.3333 30.8333 33.3333ZM30.8333 26.6667C30.8333 27.1267 30.4608 27.5 30 27.5H20C19.5392 27.5 19.1667 27.1267 19.1667 26.6667C19.1667 26.2067 19.5392 25.8333 20 25.8333H30C30.4608 25.8333 30.8333 26.2067 30.8333 26.6667ZM25 30C25 30.46 24.6275 30.8333 24.1667 30.8333H20C19.5392 30.8333 19.1667 30.46 19.1667 30C19.1667 29.54 19.5392 29.1667 20 29.1667H24.1667C24.6275 29.1667 25 29.54 25 30Z" fill="#8DCF9B"></path></svg>