<svg xmlns="http://www.w3.org/2000/svg" width="65" height="47" viewBox="0 0 65 47" fill="none"><path d="M52.2826 21.8713C59.3478 21.8713 65 27.4554 65 34.4356C65 41.4158 59.3478 47 52.2826 47C45.2174 47 39.5652 41.4158 39.5652 34.4356C39.5652 21.8713 47.5725 10.4703 60.7609 0L61.9384 1.16337C52.5181 9.07425 46.3949 16.2871 43.5688 25.1287C45.9239 23.0346 48.9855 21.8713 52.2826 21.8713ZM12.7174 21.8713C19.7826 21.8713 25.4348 27.4554 25.4348 34.4356C25.4348 41.4158 19.7826 47 12.7174 47C5.65217 47 0 41.4158 0 34.4356C0 21.8713 8.00725 10.4703 21.1957 0L22.3732 1.16337C12.9529 9.07425 6.82971 16.2871 4.23913 25.1287C6.35869 23.0346 9.42029 21.8713 12.7174 21.8713Z" fill="#121212"></path></svg>