<svg xmlns="http://www.w3.org/2000/svg" id="Layer_2" data-name="Layer 2" viewBox="0 0 551.15 148.2"><defs><style>      .cls-1 {        fill: #231f20;      }      .cls-2, .cls-3 {        fill-rule: evenodd;      }      .cls-3 {        fill: #b72826;      }    </style></defs><g id="New_Layer" data-name="New Layer"><g><path class="cls-3" d="M60,9.9C27.3,15.3.4,19.8.3,19.8c-.2.1-.3,24.6-.3,54.6v54.5h123.3c103.1,0,124.7.3,132.7,1.5,5.2.8,10.5,1.5,11.8,1.5h2.2V50.8l7.3.3,7.2.3.3,3.6.3,3.6,2.8-2.7c3.1-3.1,8.6-5,14.6-5,9.8,0,16.6,4.4,20.6,13.2,2.1,4.6,2.4,6.9,2.4,16.4,0,10.7-.1,11.3-3.5,18-4.3,8.3-9.1,12.2-16.7,13-7.5.9-11.9-.2-16.4-4.3l-4-3.6.3,15.4.3,15.4,48.5,6.9,48.5,6.9,69-9.2c38-5.1,69.8-9.5,70.8-9.7,1.6-.5,1.7-4,1.7-55V19.9H236.3l-57.8-10C146.8,4.4,120.5-.1,120.2,0c-.4.1-27.5,4.5-60.2,9.9ZM178.4,16.5c29.7,5.2,55.1,9.8,56.4,10.1,2.2.5,2.2.6,2.2,21.6v21.1l6-9.2,5.9-9.2h7.6c4.1,0,7.5.3,7.5.7-.1.5-3.8,6.8-8.4,14.2l-8.3,13.4,9.3,14.4c5.2,7.9,9.4,14.8,9.4,15.3,0,.6-3.8,1-8.9,1h-9l-5.3-9.8-5.3-9.7-.3,15.8-.3,15.7H5V27l3.8-.7C35,21.3,117.4,7.1,120.4,7c2.1-.1,28.2,4.2,58,9.5ZM452,43.9v7h13v17h-13v14.5c0,14.2,0,14.5,2.4,16,1.8,1.2,3.6,1.5,7,1l4.6-.7v5.6c0,5.1-.2,5.7-2.6,6.6-3.8,1.5-14.1,1.2-17.2-.4-3.7-1.9-6.8-5.5-8.7-9.8-1.1-2.8-1.5-7.4-1.5-18.2v-14.5l-5.2-.3-5.3-.3v-16l5.3-.3,5.2-.3v-13.9h16v7ZM368.7,54c8.4,4.1,12.7,12,13.9,25.6l.7,7.3h-40.1l.8,3.5c2.5,11,14.7,12.8,33.3,5,1.6-.7,1.8-.2,1.5,5.6q-.3,6.4-4.3,8.4c-4.9,2.4-21.6,2.8-28,.6-10-3.3-15.7-10.7-17.4-22.2-2.7-19.3,4.9-32.1,21.4-36.3,3.8-.9,13.9.4,18.2,2.5ZM401,56.9c.4,4.3.7,5,1.3,3.3.5-1.3,2.5-3.6,4.5-5.3,3-2.5,4.5-3,8.9-3h5.3v15h-5.5c-4.6,0-6,.4-8.7,2.9l-3.3,2.9-.3,19.2-.3,19.1-7.7-.3-7.7-.3-.3-29.8-.2-29.8,6.7.3,6.8.3.5,5.5ZM503,52l5,1.1v6c0,5.8-.1,6-2.2,5.4-1.3-.3-5.3-.9-9-1.2-5.4-.6-7.2-.3-9.3,1-5.3,3.5-2.1,7.7,9.4,12.1,7.4,2.8,10.2,5,12.7,9.7,3.6,6.9-.6,18.6-8.4,23.1-4.4,2.6-14.2,3.3-24.1,1.7l-8.1-1.2v-6.5c0-5.8.2-6.5,1.8-6,14.1,4.2,15.1,4.3,19,2.2,2.6-1.4,3.8-2.8,4-4.6.4-3.3-2.4-5.5-11.8-9.4-3.6-1.5-7.3-3.4-8.4-4.3-6.8-6.2-6-18.8,1.7-25.3,5.1-4.4,17.4-6,27.7-3.8Z"></path><path class="cls-2" d="M174.8,44.1l-.3,7.3-5.2.3-5.3.3v14.8l5.3.3,5.2.3.5,17.1c.5,16.6.6,17.2,3.2,20.6,4.1,5.4,8.8,7.2,17,6.5,3.7-.3,7.3-.9,7.8-1.2.6-.3,1-3.1,1-6.1v-5.4l-5.3.6c-5,.6-5.5.5-7.6-2.2-2-2.6-2.1-3.6-1.9-16.3l.3-13.6,6.8-.3,6.7-.3v-14.8l-6.7-.3-6.8-.3-.3-7.3-.3-7.2h-13.8l-.3,7.2Z"></path><path class="cls-2" d="M20,80.9v29h15v-17.3c0-11.6.4-18,1.3-19.6,2.1-4.2,6-6.3,11.6-6.3l5.1.1v-14.9h-4.9c-5.5,0-9.8,2.7-13.2,8.5l-1.9,3v-11.5h-13v29Z"></path><path class="cls-2" d="M67.5,53.8c-5.5,2.5-11.9,10-13.6,15.8-1.8,6.3-1.5,19.6.5,25.2,3.6,9.7,9.7,14.2,22.4,16.1,7.2,1.1,17.6.1,22.7-2.2,2.3-1,2.5-1.7,2.5-7.3v-6.3l-6.2,2.6c-7.7,3.2-17.5,3.6-22.5.9-3.4-1.8-6.3-6.2-6.3-9.7,0-1.9.5-2,19.6-2h19.7l-.5-7.8c-.9-13.1-6.3-22-15.4-25.8-4.9-2.1-18-1.8-22.9.5ZM86.6,64.6c2.4,1.5,5.4,7,5.4,9.7,0,1.4-1.7,1.6-12.6,1.6h-12.6l.6-3.3c1.8-9,11.5-13.1,19.2-8Z"></path><path class="cls-2" d="M109,81.4v29.5h14.8l.4-18.8c.3-16.6.5-19.1,2.3-22.2,3.8-6.5,12.8-8.8,17.6-4.4,1.7,1.5,1.9,3.7,2.1,23.3l.3,21.6h15l.3-20.8c.3-23-.3-26.9-4.9-32.2-3.9-4.4-8.4-5.8-17-5.3-5.7.3-7.6.9-11.4,3.6l-4.5,3.2v-7h-15v29.5Z"></path><path class="cls-2" d="M209.6,53.1c.4.7,4.3,6.8,8.6,13.6l7.9,12.4-2.3,3.6c-1.2,2-5.2,8.2-8.8,13.7-3.7,5.5-7,10.6-7.4,11.2-.5,1,1.2,1.3,7.6,1.3l8.3-.1,6.3-9.8,6.2-9.8v-20.3l-4.7-8.5-4.8-8.5h-8.8c-6.8,0-8.6.3-8.1,1.2Z"></path><path class="cls-3" d="M348,65.6c-1.6,1.6-3.3,4.3-3.6,6l-.6,3.3h12.1c7.6,0,12.1-.4,12.1-1s-.6-2.6-1.4-4.5c-2.8-6.7-13-8.8-18.6-3.8Z"></path><path class="cls-3" d="M292.2,65.2c-4.1,1.9-6.5,8.2-6.5,16.7,0,11.7,4,17.3,12.4,17.3,7.3,0,11.9-7,11.9-17.9s-4.4-17.4-11.4-17.3c-2.3,0-5.1.5-6.4,1.2Z"></path><path class="cls-1" d="M541.74,10.71c1.29,0,2.5.24,3.64.72s2.15,1.16,3.02,2.03c.87.87,1.55,1.88,2.03,3.02s.72,2.36.72,3.64c0,1.69-.42,3.25-1.27,4.7s-1.99,2.59-3.43,3.43c-1.44.84-3.01,1.26-4.71,1.26s-3.3-.42-4.74-1.25c-1.44-.84-2.58-1.98-3.42-3.42-.84-1.45-1.26-3.02-1.26-4.71s.42-3.28,1.26-4.72c.84-1.45,1.98-2.59,3.43-3.43,1.45-.84,3.02-1.26,4.72-1.26ZM541.74,12.55c-1.38,0-2.65.34-3.8,1.02s-2.06,1.6-2.74,2.76c-.68,1.16-1.01,2.42-1.01,3.79s.34,2.64,1.01,3.79,1.59,2.06,2.75,2.74c1.16.68,2.42,1.01,3.8,1.01s2.63-.34,3.8-1.01c1.16-.67,2.08-1.58,2.76-2.73.68-1.15,1.01-2.42,1.01-3.8s-.34-2.62-1.02-3.78c-.68-1.16-1.6-2.08-2.76-2.76-1.16-.68-2.42-1.02-3.79-1.02ZM546.02,17.88l-2.01.48c-.43-1.15-1.16-1.72-2.19-1.72-.79,0-1.4.3-1.85.91s-.67,1.41-.67,2.42c0,.79.09,1.46.28,2.01s.46.95.83,1.23.8.41,1.31.41c1.13,0,1.9-.7,2.31-2.11l1.99.68c-.66,2.13-2.11,3.19-4.35,3.19-.8,0-1.55-.2-2.24-.59-.69-.39-1.25-.99-1.67-1.79-.42-.8-.63-1.76-.63-2.88,0-1.04.19-1.95.58-2.73s.94-1.39,1.65-1.82c.72-.43,1.56-.65,2.52-.65,2.03,0,3.41.99,4.13,2.97Z"></path></g></g></svg>