<svg xmlns="http://www.w3.org/2000/svg" width="77" height="62" viewBox="0 0 77 62" fill="none"><g opacity="0.1"><path d="M49.75 23.5C49.75 19.3579 44.7132 16 38.5 16C32.2868 16 27.25 19.3579 27.25 23.5C27.25 27.6421 32.2868 31 38.5 31C44.7132 31 49.75 34.3579 49.75 38.5C49.75 42.6421 44.7132 46 38.5 46C32.2868 46 27.25 42.6421 27.25 38.5" stroke="white" stroke-width="1.5" stroke-linecap="round"></path><path d="M61 61C69.2843 61 76 54.2843 76 46C76 42.1031 74.514 38.5532 72.0776 35.8862C69.547 33.1159 68.7106 31.9779 68.3781 28.2902C67.7694 21.539 64.8811 14.9547 59.7132 9.7868C51.5405 1.61406 39.8255 -0.857484 29.5103 2.37216C25.974 3.47934 24.5958 3.14161 21.0599 1.87483C19.4791 1.3085 17.7756 1 16 1C7.71573 1 1 7.71573 1 16C1 19.8969 2.48604 23.4468 4.92236 26.1138C7.45303 28.8841 8.28941 30.0221 8.62189 33.7098C9.23056 40.461 12.1189 47.0453 17.2868 52.2132C25.4595 60.3859 37.1745 62.8575 47.4897 59.6278C51.026 58.5207 52.4042 58.8584 55.9401 60.1252C57.5209 60.6915 59.2244 61 61 61Z" stroke="white" stroke-width="1.5"></path></g></svg>