<svg xmlns="http://www.w3.org/2000/svg" width="125" height="34" viewBox="0 0 125 34" fill="none"><path d="M22.9388 8.90205C24.1866 6.07975 24.8288 3.05483 24.8288 0H3.26601e-06L0 23.2622C3.26056 23.2622 6.48919 22.6605 9.50156 21.4914C12.5139 20.3224 15.251 18.6089 17.5566 16.4488C19.8622 14.2888 21.691 11.7243 22.9388 8.90205Z" fill="#121212"></path><path d="M16.1278 29.9742C15.6546 31.124 15.411 32.3564 15.411 33.6009H24.8288V24.1237C23.592 24.1237 22.3673 24.3689 21.2247 24.8451C20.0821 25.3214 19.0439 26.0195 18.1694 26.8995C17.2948 27.7796 16.6011 28.8243 16.1278 29.9742Z" fill="#121212"></path><path fill-rule="evenodd" clip-rule="evenodd" d="M81.5512 24.9075V0H85.8295V24.9075H81.5512ZM89.9757 24.6772C90.8902 25.0939 91.9679 25.3023 93.209 25.3023C94.1888 25.3023 95.0814 25.1707 95.887 24.9075C96.6926 24.6223 97.4111 24.2275 98.0425 23.723C98.2961 23.5116 98.5356 23.2807 98.7611 23.0304V24.9075H102.811V12.9966C102.811 11.7244 102.495 10.6167 101.864 9.67345C101.254 8.7083 100.394 7.9625 99.2836 7.43605C98.1732 6.88767 96.8886 6.61348 95.4298 6.61348C94.2323 6.61348 93.1219 6.8109 92.0986 7.20573C91.0752 7.60057 90.1826 8.14895 89.4205 8.85088C88.6802 9.53087 88.1359 10.3425 87.7876 11.2857L91.2821 12.9966C91.6087 12.185 92.1203 11.5379 92.8171 11.0554C93.5356 10.5509 94.3521 10.2986 95.2665 10.2986C96.2463 10.2986 97.0301 10.5618 97.618 11.0883C98.2276 11.5928 98.5324 12.2289 98.5324 12.9966V13.576L93.2416 14.4444C91.8482 14.6637 90.6942 15.0366 89.7798 15.5631C88.8653 16.0895 88.1903 16.7476 87.7549 17.5372C87.3194 18.305 87.1017 19.1824 87.1017 20.1695C87.1017 21.2004 87.3521 22.1107 87.8529 22.9004C88.3537 23.6681 89.0613 24.2604 89.9757 24.6772ZM98.5324 16.8699L94.0581 17.6359C93.209 17.7895 92.5776 18.0637 92.1639 18.4585C91.7502 18.8534 91.5434 19.3688 91.5434 20.005C91.5434 20.6191 91.772 21.1127 92.2292 21.4856C92.7082 21.8366 93.2961 22.012 93.9928 22.012C94.8855 22.012 95.6693 21.8256 96.3443 21.4527C97.041 21.0578 97.5744 20.5204 97.9446 19.8404C98.3365 19.1604 98.5324 18.4146 98.5324 17.603V16.8699ZM109.41 15.925L103.205 24.9075H108.235L111.942 19.3439L119.892 34H125L114.473 15.925L120.678 7.00831H115.681L111.942 12.5709L108.202 7.00831H103.173L109.41 15.925ZM66.1248 24.0849C67.5618 24.8965 69.1512 25.3023 70.8931 25.3023C72.6131 25.3023 74.1807 24.8965 75.596 24.0849C77.0112 23.2733 78.1434 22.1656 78.9925 20.7617C79.8417 19.3579 80.2662 17.7566 80.2662 15.9579C80.2662 14.1373 79.8417 12.536 78.9925 11.1541C78.1652 9.75022 77.0439 8.64249 75.6286 7.83089C74.2134 7.01928 72.6349 6.61348 70.8931 6.61348C69.1295 6.61348 67.54 7.01928 66.1248 7.83089C64.7096 8.64249 63.5774 9.75022 62.7282 11.1541C61.9009 12.5579 61.4872 14.1592 61.4872 15.9579C61.4872 17.7566 61.9009 19.3579 62.7282 20.7617C63.5774 22.1656 64.7096 23.2733 66.1248 24.0849ZM73.4078 20.663C72.6893 21.1236 71.8511 21.354 70.8931 21.354C69.9133 21.354 69.0532 21.1236 68.313 20.663C67.5727 20.2024 66.9848 19.5662 66.5494 18.7547C66.1357 17.9211 65.9289 16.9889 65.9289 15.9579C65.9289 14.905 66.1357 13.9837 66.5494 13.1941C66.9848 12.3824 67.5727 11.7463 68.313 11.2857C69.0532 10.8031 69.9133 10.5618 70.8931 10.5618C71.8511 10.5618 72.6893 10.8031 73.4078 11.2857C74.1481 11.7463 74.7251 12.3824 75.1387 13.1941C75.5742 13.9837 75.7919 14.905 75.7919 15.9579C75.7919 16.9889 75.5742 17.9211 75.1387 18.7547C74.7251 19.5662 74.1481 20.2024 73.4078 20.663ZM51.9499 24.9075V7.00831H55.967V9.52767C56.366 8.64666 56.8994 8.00428 57.5673 7.60057C58.46 7.07412 59.5269 6.8109 60.7679 6.8109H61.813V10.6276H60.278C59.0588 10.6276 58.079 11.0115 57.3387 11.7792C56.5984 12.525 56.2283 13.5779 56.2283 14.9379V24.9075H51.9499ZM37.1201 24.6772C38.0346 25.0939 39.1123 25.3023 40.3534 25.3023C41.3331 25.3023 42.2258 25.1707 43.0314 24.9075C43.837 24.6223 44.5555 24.2275 45.1869 23.723C45.4405 23.5116 45.68 23.2807 45.9054 23.0304V24.9075H49.9552V12.9966C49.9552 11.7244 49.6395 10.6167 49.0081 9.67345C48.3984 8.7083 47.5384 7.9625 46.428 7.43605C45.3176 6.88767 44.033 6.61348 42.5742 6.61348C41.3767 6.61348 40.2663 6.8109 39.2429 7.20573C38.2196 7.60057 37.3269 8.14895 36.5649 8.85088C35.8246 9.53087 35.2803 10.3425 34.9319 11.2857L38.4265 12.9966C38.7531 12.185 39.2647 11.5379 39.9615 11.0554C40.68 10.5509 41.4964 10.2986 42.4109 10.2986C43.3907 10.2986 44.1745 10.5618 44.7624 11.0883C45.372 11.5928 45.6768 12.2289 45.6768 12.9966V13.576L40.386 14.4444C38.9926 14.6637 37.8386 15.0366 36.9242 15.5631C36.0097 16.0895 35.3347 16.7476 34.8993 17.5372C34.4638 18.305 34.2461 19.1824 34.2461 20.1695C34.2461 21.2004 34.4965 22.1107 34.9973 22.9004C35.498 23.6681 36.2056 24.2604 37.1201 24.6772ZM45.6768 16.8699V17.603C45.6768 18.4146 45.4809 19.1604 45.089 19.8404C44.7188 20.5204 44.1854 21.0578 43.4887 21.4527C42.8137 21.8256 42.0299 22.012 41.1372 22.012C40.4405 22.012 39.8526 21.8366 39.3736 21.4856C38.9164 21.1127 38.6877 20.6191 38.6877 20.005C38.6877 19.3688 38.8946 18.8534 39.3083 18.4585C39.722 18.0637 40.3534 17.7895 41.2025 17.6359L45.6768 16.8699ZM34.3333 0.548381H77.6067V2.74191H34.3333V0.548381ZM120.608 0.548381H89.5818V2.74191H120.608V0.548381Z" fill="#121212"></path><path fill-rule="evenodd" clip-rule="evenodd" d="M45.3843 33.4878C45.7737 33.8292 46.3505 33.9999 47.1148 33.9999C47.5426 33.9999 47.8935 33.9681 48.1675 33.9046C48.4463 33.8371 48.6602 33.7637 48.8092 33.6843V31.8386H46.9778V32.2613H48.1387V33.333C47.8839 33.4124 47.5498 33.4521 47.1365 33.4521C46.6125 33.4521 46.2256 33.337 45.9756 33.1068C45.7256 32.8765 45.6007 32.5411 45.6007 32.1005C45.6007 31.6163 45.7184 31.2451 45.954 30.9871C46.1943 30.7291 46.6101 30.6001 47.2013 30.6001C47.682 30.6001 48.1195 30.6597 48.5136 30.7787V30.2191C48.3165 30.1635 48.105 30.1218 47.8791 30.094C47.658 30.0623 47.4104 30.0464 47.1365 30.0464C46.6077 30.0464 46.1703 30.1297 45.8242 30.2965C45.4829 30.4632 45.2281 30.7013 45.0599 31.0109C44.8916 31.3166 44.8075 31.6798 44.8075 32.1005C44.8075 32.684 44.9998 33.1465 45.3843 33.4878ZM85.4805 33.4878C85.8698 33.8292 86.4467 33.9999 87.211 33.9999C87.6388 33.9999 87.9897 33.9681 88.2637 33.9046C88.5425 33.8371 88.7564 33.7637 88.9054 33.6843V31.8386H87.074V32.2613H88.2348V33.333C87.9801 33.4124 87.646 33.4521 87.2326 33.4521C86.7086 33.4521 86.3217 33.337 86.0717 33.1068C85.8218 32.8765 85.6968 32.5411 85.6968 32.1005C85.6968 31.6163 85.8146 31.2451 86.0501 30.9871C86.2904 30.7291 86.7062 30.6001 87.2975 30.6001C87.7782 30.6001 88.2156 30.6597 88.6098 30.7787V30.2191C88.4127 30.1635 88.2012 30.1218 87.9753 30.094C87.7541 30.0623 87.5066 30.0464 87.2326 30.0464C86.7038 30.0464 86.2664 30.1297 85.9203 30.2965C85.579 30.4632 85.3243 30.7013 85.156 31.0109C84.9878 31.3166 84.9037 31.6798 84.9037 32.1005C84.9037 32.684 85.0959 33.1465 85.4805 33.4878ZM107.107 33.9999C106.343 33.9999 105.764 33.8272 105.37 33.4819C104.98 33.1365 104.786 32.6701 104.786 32.0827C104.786 31.6619 104.867 31.3007 105.031 30.999C105.199 30.6934 105.454 30.4592 105.795 30.2965C106.136 30.1297 106.571 30.0464 107.1 30.0464C107.369 30.0464 107.614 30.0642 107.836 30.1C108.061 30.1317 108.271 30.1754 108.463 30.231V30.7966C108.271 30.7331 108.064 30.6855 107.843 30.6537C107.626 30.618 107.398 30.6001 107.158 30.6001C106.581 30.6001 106.172 30.7271 105.932 30.9812C105.696 31.2352 105.579 31.6024 105.579 32.0827C105.579 32.5312 105.708 32.8726 105.968 33.1068C106.228 33.337 106.629 33.4521 107.172 33.4521C107.393 33.4521 107.614 33.4382 107.836 33.4104C108.061 33.3787 108.273 33.331 108.47 33.2675V33.8391C108.278 33.8907 108.069 33.9304 107.843 33.9582C107.622 33.986 107.376 33.9999 107.107 33.9999ZM112.733 33.9403V32.5173L111.068 30.1059H111.883L113.123 31.9695L114.363 30.1059H115.178L113.512 32.5173V33.9403H112.733ZM97.9574 30.1059V33.9403H98.7434V31.1241L101.159 33.9403H101.851V30.1059H101.072V32.9281L98.6496 30.1059H97.9574ZM91.8301 33.9403V30.1059H95.0675V30.612H92.616V31.7731H94.8007V32.2732H92.616V33.4402H95.0675V33.9403H91.8301ZM78.0935 33.9403L79.8672 30.1059H80.7469L82.5062 33.9403H81.6986L81.2372 32.952H79.3697L78.9082 33.9403H78.0935ZM81.1074 32.4518L80.2998 30.6954L79.4923 32.4518H81.1074ZM68.4543 30.1059V33.9403H71.6196V33.4402H69.2402V30.1059H68.4543ZM61.1055 33.9403L62.8793 30.1059H63.7589L65.5183 33.9403H64.7107L64.2493 32.952H62.3818L61.9203 33.9403H61.1055ZM62.5044 32.4518H64.1195L63.3119 30.6954L62.5044 32.4518ZM56.7981 30.612V33.9403H57.584V30.612H59.0622V30.1059H55.3128V30.612H56.7981ZM51.7339 33.9403V30.1059H52.5199V33.9403H51.7339ZM41.0917 33.9403V30.1059H41.8776V33.9403H41.0917ZM34.2461 30.1059V33.9403H36.128C36.825 33.9403 37.3369 33.7895 37.6638 33.4878C37.9907 33.1822 38.1541 32.7019 38.1541 32.0469C38.1541 31.3523 37.9883 30.8561 37.6566 30.5584C37.3249 30.2568 36.8154 30.1059 36.128 30.1059H34.2461ZM36.0054 33.4402H35.032V30.612H36.0054C36.3323 30.612 36.5943 30.6537 36.7913 30.7371C36.9932 30.8204 37.1398 30.9653 37.2312 31.1717C37.3225 31.3781 37.3682 31.6699 37.3682 32.0469C37.3682 32.424 37.3177 32.7138 37.2167 32.9162C37.1158 33.1187 36.9644 33.2576 36.7625 33.333C36.5606 33.4045 36.3082 33.4402 36.0054 33.4402Z" fill="#121212"></path></svg>