<svg xmlns="http://www.w3.org/2000/svg" width="17" height="19" viewBox="0 0 17 19" fill="none"><path id="Vector" d="M13.5353 11.8304C12.4643 11.8304 11.5055 12.3358 10.8693 13.128L6.73098 10.6975C6.85967 10.3229 6.93041 9.92007 6.93041 9.50029C6.93041 9.0806 6.85967 8.67779 6.73098 8.30317L10.869 5.87205C11.5051 6.66453 12.464 7.1701 13.5351 7.1701C15.4456 7.1701 16.9999 5.56165 16.9999 3.58451C17.0001 1.60795 15.4458 0 13.5353 0C11.6246 0 10.0701 1.60795 10.0701 3.58442C10.0701 4.0042 10.1407 4.40709 10.2695 4.7818L6.13126 7.213C5.49516 6.42094 4.53644 5.9157 3.46569 5.9157C1.55472 5.9157 0 7.52365 0 9.50021C0 11.4767 1.55472 13.0846 3.46569 13.0846C4.53644 13.0846 5.49508 12.5794 6.13118 11.7874L10.2695 14.218C10.1407 14.5927 10.07 14.9957 10.07 15.4156C10.07 17.392 11.6245 19 13.5352 19C15.4457 19 17 17.392 17 15.4156C17.0001 13.4388 15.4458 11.8304 13.5353 11.8304ZM13.5353 1.25432C14.7772 1.25432 15.7875 2.29958 15.7875 3.58442C15.7875 4.86993 14.7772 5.9157 13.5353 5.9157C12.2932 5.9157 11.2826 4.86993 11.2826 3.58442C11.2826 2.29958 12.2932 1.25432 13.5353 1.25432ZM3.46577 11.8304C2.2234 11.8304 1.21262 10.785 1.21262 9.50029C1.21262 8.21537 2.2234 7.1701 3.46577 7.1701C4.70765 7.1701 5.71794 8.21537 5.71794 9.50029C5.71794 10.785 4.70757 11.8304 3.46577 11.8304ZM13.5353 17.7458C12.2932 17.7458 11.2826 16.7004 11.2826 15.4157C11.2826 14.1304 12.2932 13.0847 13.5353 13.0847C14.7772 13.0847 15.7875 14.1304 15.7875 15.4157C15.7875 16.7004 14.7772 17.7458 13.5353 17.7458Z" fill="#3F524C"></path></svg>