<svg xmlns="http://www.w3.org/2000/svg" version="1.1" xmlns:xlink="http://www.w3.org/1999/xlink" width="512" height="512" x="0" y="0" viewBox="0 0 512 512" style="enable-background:new 0 0 512 512" xml:space="preserve" class=""><g><path d="M494.5 123.27c9.649 0 17.5-7.859 17.5-17.52V95.73c0-9.666-7.851-17.53-17.5-17.53H354.192C343.93 33.467 303.801 0 256 0c-14.055 0-27.657 2.841-40.431 8.443a7.498 7.498 0 0 0-3.855 9.881 7.498 7.498 0 0 0 9.881 3.855C232.457 17.416 244.032 15 256 15c47.274 0 85.735 38.461 85.735 85.735 0 47.275-38.461 85.736-85.735 85.736s-85.735-38.461-85.735-85.736c0-22.867 8.896-44.374 25.048-60.561 2.926-2.932 2.921-7.681-.011-10.606s-7.681-2.922-10.606.011C171.142 43.162 161.94 59.935 157.785 78.2H17.5C7.851 78.2 0 86.064 0 95.73v10.02c0 9.66 7.851 17.52 17.5 17.52H30v108.698L1.186 276.92c-.426.736-1.054 1.761-1.186 4.048v38.063c0 7.995 6.505 14.5 14.5 14.5H30v133.407H17.5c-9.649 0-17.5 7.859-17.5 17.521v10.021C0 504.141 7.851 512 17.5 512h477c9.649 0 17.5-7.859 17.5-17.521v-10.021c0-9.661-7.851-17.521-17.5-17.521H482V333.53h15.5c7.995 0 14.5-6.505 14.5-14.5v-38.063c-.201-1.274.28-1.149-1.186-4.048L482 231.968V123.27zm-231 77.922c44.453-3.287 80.972-35.55 90.692-77.923H368.5v103.396h-105zM157.808 123.27c9.72 42.373 46.239 74.636 90.692 77.923v25.473h-105V123.27zm-140.308-15c-1.379 0-2.5-1.13-2.5-2.52V95.73c0-1.396 1.121-2.53 2.5-2.53h138.041a103 103 0 0 0-.276 7.535c0 2.534.096 5.046.281 7.534H17.5zm111 15v103.396H45V123.27zm366 358.668c1.379 0 2.5 1.131 2.5 2.521v10.021c0 1.39-1.121 2.521-2.5 2.521h-477c-1.379 0-2.5-1.131-2.5-2.521v-10.021c0-1.39 1.121-2.521 2.5-2.521zm-449.5-15V333.53h135.572v133.407H45zm150.572 0V333.53H248.5v133.407h-52.928zm128.356-89.203c4.143 0 7.5-3.357 7.5-7.5V333.53H467v133.407H331.428v-61.702c0-4.143-3.357-7.5-7.5-7.5s-7.5 3.357-7.5 7.5v61.702H263.5V333.53h52.928v36.705c0 4.143 3.357 7.5 7.5 7.5zM497 318.53H15v-30.063h482zm-6.216-45.062H21.216l20.385-31.803H470.4zM383.5 226.665V123.27H467v103.396h-83.5zM356.454 108.27a101.578 101.578 0 0 0 0-15.069H494.5c1.379 0 2.5 1.135 2.5 2.53v10.02c0 1.39-1.121 2.52-2.5 2.52H356.454zM151.072 360.591H74.5c-7.995 0-14.5 6.505-14.5 14.5v50.286c0 7.995 6.505 14.5 14.5 14.5h76.572c7.995 0 14.5-6.505 14.5-14.5v-50.286c0-7.995-6.505-14.5-14.5-14.5zm-.5 64.286H75v-49.286h75.572zm71.336-267.423h68.184c4.811 0 9.378-2.113 12.531-5.797a16.99 16.99 0 0 0 3.887-13.551l-8.043-65.422c-.821-6.562-6.468-11.43-12.974-11.428h-6.323v-9.541c0-12.776-10.394-23.17-23.17-23.17s-23.17 10.394-23.17 23.17v9.541h-6.323c-6.493.004-12.154 4.845-12.974 11.428l-8.043 65.422a16.984 16.984 0 0 0 3.887 13.551c3.153 3.684 7.721 5.797 12.531 5.797zM247.83 51.716c0-4.505 3.665-8.17 8.17-8.17s8.17 3.665 8.17 8.17v9.541h-16.34zm-27.498 88.565c.023-.142 7.859-63.839 7.875-64.024h4.623v8.668c0 4.143 3.357 7.5 7.5 7.5s7.5-3.357 7.5-7.5v-8.668h16.34v8.668c0 4.143 3.357 7.5 7.5 7.5s7.5-3.357 7.5-7.5v-8.668h4.623c.01.194 7.846 63.841 7.875 64.024.199 1.254-.457 2.127-1.576 2.173h-68.184c-1.116-.046-1.773-.928-1.576-2.173zm140.596 299.596H437.5c7.995 0 14.5-6.505 14.5-14.5v-50.286c0-7.995-6.505-14.5-14.5-14.5h-76.572c-7.995 0-14.5 6.505-14.5 14.5v50.286c0 7.995 6.505 14.5 14.5 14.5zm.5-64.286H437v49.286h-75.572z" fill="#FFFFFF" opacity="1" data-original="#000000" class=""></path></g></svg>