<svg xmlns="http://www.w3.org/2000/svg" version="1.1" xmlns:xlink="http://www.w3.org/1999/xlink" width="512" height="512" x="0" y="0" viewBox="0 0 682.667 682.667" style="enable-background:new 0 0 512 512" xml:space="preserve" class=""><g><defs><clipPath id="a" clipPathUnits="userSpaceOnUse"><path d="M0 512h512V0H0Z" fill="#000000" opacity="1" data-original="#000000"/></clipPath></defs><g clip-path="url(#a)" transform="matrix(1.33333 0 0 -1.33333 0 682.667)"><path d="m0 0-55.027 12.114h-49.198L-159.252 0c-20.555-6.052-34.667-24.918-34.667-46.345v-106.517c0-9.13 7.401-16.532 16.532-16.532H18.135c9.13 0 16.531 7.402 16.531 16.532v106.517C34.666-24.918 20.554-6.052 0 0Z" style="stroke-width:15;stroke-linecap:round;stroke-linejoin:round;stroke-miterlimit:10;stroke-dasharray:none;stroke-opacity:1" transform="translate(379.68 176.894)" fill="#FFFFFF" stroke-width="15" stroke-linecap="round" stroke-linejoin="round" stroke-miterlimit="10" stroke-dasharray="none" stroke-opacity="" data-original="#000000" class="" stroke="#FFFFFF"/><path d="M0 0c0 12.598-10.06 22.891-22.654 23.18-13.077.3-14.077 9.403-27.388 9.403h-22.719c-21.101 0-38.208-17.107-38.208-38.209l.037-34.492c.074-30.633 24.966-58.031 55.599-57.957h.001C-24.699-98.001.073-70.484 0-39.851Z" style="stroke-width:15;stroke-linecap:round;stroke-linejoin:round;stroke-miterlimit:10;stroke-dasharray:none;stroke-opacity:1" transform="translate(355.531 309.793)" fill="#FFFFFF" stroke-width="15" stroke-linecap="round" stroke-linejoin="round" stroke-miterlimit="10" stroke-dasharray="none" stroke-opacity="" data-original="#000000" class="" stroke="#FFFFFF"/><path d="M0 0c0 30.911-25.059 55.969-55.97 55.969h-116.645c-30.911 0-55.97-25.058-55.97-55.969" style="stroke-width:15;stroke-linecap:round;stroke-linejoin:round;stroke-miterlimit:10;stroke-dasharray:none;stroke-opacity:1" transform="translate(414.347 53.71)" fill="#FFFFFF" stroke-width="15" stroke-linecap="round" stroke-linejoin="round" stroke-miterlimit="10" stroke-dasharray="none" stroke-opacity="" data-original="#000000" class="" stroke="#FFFFFF"/><path d="M0 0v28.979" style="stroke-width:15;stroke-linecap:round;stroke-linejoin:round;stroke-miterlimit:10;stroke-dasharray:none;stroke-opacity:1" transform="translate(324.653 189.008)" fill="#FFFFFF" stroke-width="15" stroke-linecap="round" stroke-linejoin="round" stroke-miterlimit="10" stroke-dasharray="none" stroke-opacity="" data-original="#000000" class="" stroke="#FFFFFF"/><path d="M0 0v-29.005" style="stroke-width:15;stroke-linecap:round;stroke-linejoin:round;stroke-miterlimit:10;stroke-dasharray:none;stroke-opacity:1" transform="translate(275.456 218.013)" fill="#FFFFFF" stroke-width="15" stroke-linecap="round" stroke-linejoin="round" stroke-miterlimit="10" stroke-dasharray="none" stroke-opacity="" data-original="#000000" class="" stroke="#FFFFFF"/><path d="M0 0v48.327c0 16.975-13.762 30.736-30.736 30.736h-57.285" style="stroke-width:15;stroke-linecap:round;stroke-linejoin:round;stroke-miterlimit:10;stroke-dasharray:none;stroke-opacity:1" transform="translate(443.552 198.09)" fill="#FFFFFF" stroke-width="15" stroke-linecap="round" stroke-linejoin="round" stroke-miterlimit="10" stroke-dasharray="none" stroke-opacity="" data-original="#000000" class="" stroke="#FFFFFF"/><path d="M0 0c16.264.798 29.205 14.236 29.205 30.697v53.24" style="stroke-width:15;stroke-linecap:round;stroke-linejoin:round;stroke-miterlimit:10;stroke-dasharray:none;stroke-opacity:1" transform="translate(414.347 84.153)" fill="#FFFFFF" stroke-width="15" stroke-linecap="round" stroke-linejoin="round" stroke-miterlimit="10" stroke-dasharray="none" stroke-opacity="" data-original="#000000" class="" stroke="#FFFFFF"/><path d="M0 0h-42.461c-16.976 0-30.736-13.761-30.736-30.736v-131.566c0-16.975 13.76-30.736 30.736-30.736h147.504" style="stroke-width:15;stroke-linecap:round;stroke-linejoin:round;stroke-miterlimit:10;stroke-dasharray:none;stroke-opacity:1" transform="translate(80.718 277.152)" fill="#FFFFFF" stroke-width="15" stroke-linecap="round" stroke-linejoin="round" stroke-miterlimit="10" stroke-dasharray="none" stroke-opacity="" data-original="#000000" class="" stroke="#FFFFFF"/><path d="M0 0h-133.874" style="stroke-width:15;stroke-linecap:round;stroke-linejoin:round;stroke-miterlimit:10;stroke-dasharray:none;stroke-opacity:1" transform="translate(244.591 277.152)" fill="#FFFFFF" stroke-width="15" stroke-linecap="round" stroke-linejoin="round" stroke-miterlimit="10" stroke-dasharray="none" stroke-opacity="" data-original="#000000" class="" stroke="#FFFFFF"/><path d="M0 0v-66.801c0-5.42 4.394-9.813 9.813-9.813h17.18c5.419 0 9.813 4.393 9.813 9.813V0" style="stroke-width:15;stroke-linecap:round;stroke-linejoin:round;stroke-miterlimit:10;stroke-dasharray:none;stroke-opacity:1" transform="translate(45.217 84.114)" fill="#FFFFFF" stroke-width="15" stroke-linecap="round" stroke-linejoin="round" stroke-miterlimit="10" stroke-dasharray="none" stroke-opacity="" data-original="#000000" class="" stroke="#FFFFFF"/><path d="m0 0-55.028-12.115c-20.554-6.052-34.666-24.918-34.666-46.344v-12.883" style="stroke-width:15;stroke-linecap:round;stroke-linejoin:round;stroke-miterlimit:10;stroke-dasharray:none;stroke-opacity:1" transform="translate(140.565 348.495)" fill="#FFFFFF" stroke-width="15" stroke-linecap="round" stroke-linejoin="round" stroke-miterlimit="10" stroke-dasharray="none" stroke-opacity="" data-original="#000000" class="" stroke="#FFFFFF"/><path d="M0 0a48.276 48.276 0 0 1-11.235 4.937l-55.028 12.114" style="stroke-width:15;stroke-linecap:round;stroke-linejoin:round;stroke-miterlimit:10;stroke-dasharray:none;stroke-opacity:1" transform="translate(256.025 331.443)" fill="#FFFFFF" stroke-width="15" stroke-linecap="round" stroke-linejoin="round" stroke-miterlimit="10" stroke-dasharray="none" stroke-opacity="" data-original="#000000" class="" stroke="#FFFFFF"/><path d="M0 0v-21.703c0-13.586 11.013-24.599 24.599-24.599 13.585 0 24.598 11.013 24.598 24.599V0" style="stroke-width:15;stroke-linecap:round;stroke-linejoin:round;stroke-miterlimit:10;stroke-dasharray:none;stroke-opacity:1" transform="translate(140.565 370.198)" fill="#FFFFFF" stroke-width="15" stroke-linecap="round" stroke-linejoin="round" stroke-miterlimit="10" stroke-dasharray="none" stroke-opacity="" data-original="#000000" class="" stroke="#FFFFFF"/><path d="M0 0s-12.085 3.604-21.229 13.743c-5.45 6.043-14.262 7.629-21.347 3.626-18.32-10.348-51.855-24.478-81.247-10.746v18.069c0 23.547 19.088 42.635 42.635 42.635h25.35a25.733 25.733 0 0 0 15.575-5.249 25.738 25.738 0 0 1 14.985-5.243C-11.225 56.513 0 45.028 0 30.971Z" style="stroke-width:15;stroke-linecap:round;stroke-linejoin:round;stroke-miterlimit:10;stroke-dasharray:none;stroke-opacity:1" transform="translate(227.075 437.173)" fill="#FFFFFF" stroke-width="15" stroke-linecap="round" stroke-linejoin="round" stroke-miterlimit="10" stroke-dasharray="none" stroke-opacity="" data-original="#000000" class="" stroke="#FFFFFF"/><path d="M0 0v-19.965c0-6.827 5.535-12.363 12.363-12.363.279-13.018 5.75-25.548 15.633-34.058 7.957-6.851 19.141-15.39 33.916-15.554 14.774.164 25.959 8.703 33.915 15.554 9.883 8.51 15.354 21.04 15.633 34.058 6.828 0 12.363 5.536 12.363 12.363v13.342" style="stroke-width:15;stroke-linecap:round;stroke-linejoin:round;stroke-miterlimit:10;stroke-dasharray:none;stroke-opacity:1" transform="translate(103.251 443.795)" fill="#FFFFFF" stroke-width="15" stroke-linecap="round" stroke-linejoin="round" stroke-miterlimit="10" stroke-dasharray="none" stroke-opacity="" data-original="#000000" class="" stroke="#FFFFFF"/><path d="M0 0h-127.511c-9.15 0-16.569-7.418-16.569-16.569v-65.475c0-9.151 7.419-16.569 16.569-16.569h45.277c9.007 0 16.31-7.303 16.31-16.31v-22.758c0-4.392 5.576-6.274 8.237-2.78l26.98 35.42a16.308 16.308 0 0 0 12.975 6.428H0c9.15 0 16.569 7.418 16.569 16.569v65.475C16.569-7.418 9.15 0 0 0Z" style="stroke-width:15;stroke-linecap:round;stroke-linejoin:round;stroke-miterlimit:10;stroke-dasharray:none;stroke-opacity:1" transform="translate(487.91 504.333)" fill="#FFFFFF" stroke-width="15" stroke-linecap="round" stroke-linejoin="round" stroke-miterlimit="10" stroke-dasharray="none" stroke-opacity="" data-original="#000000" class="" stroke="#FFFFFF"/></g></g></svg>